<?xml version="1.0" encoding="UTF-8"?>
<svg id="Layer_1" data-name="Layer 1" xmlns="http://www.w3.org/2000/svg" xmlns:xlink="http://www.w3.org/1999/xlink" viewBox="0 0 131.93 131.94">
  <defs>
    <style>
      .cls-1 {
        fill: url(#linear-gradient);
      }

      .cls-1, .cls-2, .cls-3, .cls-4, .cls-5, .cls-6, .cls-7 {
        stroke-width: 0px;
      }

      .cls-2 {
        fill: url(#linear-gradient-2);
      }

      .cls-3 {
        fill: url(#linear-gradient-3);
      }

      .cls-4 {
        fill: #bb133e;
      }

      .cls-5 {
        fill: #fff;
      }

      .cls-6 {
        fill: gold;
      }

      .cls-7 {
        fill: #002147;
      }
    </style>
    <linearGradient id="linear-gradient" x1="39.73" y1="53.82" x2="39.73" y2="80.78" gradientTransform="translate(0 134.31) scale(1 -1)" gradientUnits="userSpaceOnUse">
      <stop offset="0" stop-color="#fff"/>
      <stop offset="1" stop-color="#002147"/>
    </linearGradient>
    <linearGradient id="linear-gradient-2" x1="68.01" y1="53.8" x2="68.01" y2="80.77" xlink:href="#linear-gradient"/>
    <linearGradient id="linear-gradient-3" x1="94.37" x2="94.37" y2="80.78" xlink:href="#linear-gradient"/>
  </defs>
  <path class="cls-7" d="m79.7,1.46c35.63,7.59,58.36,42.62,50.77,78.25-7.59,35.63-42.62,58.36-78.24,50.77C16.6,122.89-6.13,87.86,1.46,52.24,9.04,16.6,44.07-6.13,79.7,1.46Z"/>
  <path class="cls-4" d="m2.44,65.97C2.44,30.89,30.88,2.45,65.96,2.45h0c35.08,0,63.52,28.44,63.52,63.52h0c0,35.08-28.44,63.52-63.52,63.52h0c-35.08,0-63.52-28.44-63.52-63.52h0ZM22.66,22.67c-11.08,11.09-17.94,26.39-17.94,43.3h0c0,16.91,6.85,32.22,17.94,43.3h0c11.09,11.08,26.39,17.94,43.3,17.94h0c16.91,0,32.22-6.85,43.3-17.94h0c11.08-11.09,17.94-26.39,17.94-43.3h0c0-16.91-6.85-32.22-17.94-43.3h0c-11.09-11.08-26.39-17.94-43.3-17.94h0c-16.91,0-32.22,6.85-43.3,17.94h0Z"/>
  <path class="cls-6" d="m65.43,97.19c-3.46-4.01-4.7-7.23-3.36-14.43-.77-.28-1.5-.62-2.2-1.01-3.32,8.3-5.3,19.71,5.37,25.06h.72c2.65,0,5.24-.26,7.75-.74,1.09-.82,4.05-3.66,3.42-9.91,0,0-6.87,6.62-11.71,1.02h.01Z"/>
  <g>
    <path class="cls-5" d="m15.18,75.74l.44,2.1-.71.15-.28-1.35-1.46.31.22,1.07-.71.15-.22-1.07-2.1.44-.16-.75,4.97-1.05h.01Z"/>
    <path class="cls-5" d="m11.37,80.64c.15-.28.41-.47.76-.57l2.67-.76c.35-.1.67-.07.95.08.28.16.47.41.57.77.1.35.07.67-.08.95-.15.28-.41.47-.76.57l-2.67.76c-.35.1-.67.07-.95-.08-.28-.16-.47-.41-.57-.77-.1-.35-.07-.67.08-.95h0Zm.84,1.04c.11.06.24.06.39.02l2.67-.76c.15-.04.26-.12.32-.22.06-.1.07-.22.03-.36-.04-.14-.11-.24-.22-.29-.11-.06-.24-.06-.39-.02l-2.67.76c-.15.04-.26.12-.32.22s-.07.22-.03.36.11.24.22.29Z"/>
    <path class="cls-5" d="m12.85,86.09l1.78-1.25-.14-.37-1.97.72-.26-.72,4.77-1.75.41,1.13c.13.35.12.66,0,.94-.13.28-.37.48-.72.61l-.52.19c-.22.08-.43.11-.63.08-.2-.02-.38-.1-.53-.22l-1.91,1.39-.27-.75h0Zm2.32-1.87l.14.38c.05.14.13.24.24.28.11.05.23.05.37,0l.55-.2c.14-.05.24-.13.28-.24.05-.11.05-.23,0-.37l-.14-.37-1.44.53h0Z"/>
    <path class="cls-5" d="m16.07,90.68l-.36-.74-1.08.34-.34-.69,4.94-1.47.45.93-4.2,2.98-.34-.7.94-.64h-.01Zm.62-.42l1.78-1.21-2.05.65.27.56Z"/>
    <path class="cls-5" d="m20.63,90.89l.61,1.04c.18.32.24.63.16.93s-.28.54-.6.73l-2.3,1.33c-.32.18-.63.24-.93.16-.3-.08-.54-.28-.73-.59l-.61-1.04,4.39-2.55h0Zm-3.18,3.2c.08.13.17.21.28.24s.23,0,.36-.07l2.32-1.35c.13-.08.21-.17.24-.28s0-.23-.07-.36l-.2-.35-3.14,1.82.2.35h0Z"/>
    <path class="cls-5" d="m23.99,96.2l-4.67,2.17-.58-.85,3.72-3.56.44.65-2.97,2.73,3.63-1.77.43.64h0Z"/>
    <path class="cls-5" d="m22.48,100.73l-.51-.65-.99.57-.48-.6,4.51-2.49.64.81-3.47,3.81-.49-.62.78-.83h.01Zm.52-.54l1.48-1.56-1.86,1.07.39.49h0Z"/>
    <path class="cls-5" d="m26.98,99.96l.57.63-1.85,3.03,2.51-2.31.51.56-3.74,3.44-.55-.6,1.71-2.95-2.4,2.2-.51-.56,3.74-3.44h0Z"/>
    <path class="cls-5" d="m26.67,106.61c0-.31.11-.6.35-.86l1.93-2.05c.25-.26.52-.4.84-.41.31-.01.6.11.86.35.26.25.4.53.41.84,0,.31-.11.6-.35.86l-.41.43-.55-.52.41-.43c.1-.11.15-.22.15-.34s-.05-.22-.14-.31c-.1-.09-.2-.13-.32-.12-.12,0-.23.06-.33.17l-1.93,2.05c-.1.11-.15.22-.15.34s.05.22.14.31c.1.09.2.13.32.12.12,0,.23-.06.33-.17l.5-.53.55.52-.5.53c-.25.26-.52.4-.84.41-.31.01-.6-.11-.86-.35-.26-.25-.4-.52-.41-.84Z"/>
    <path class="cls-5" d="m32.52,105.41l1.69,1.38-.46.56-1.1-.89-.89,1.1.87.71-.46.56-.87-.71-.94,1.15,1.1.89-.46.56-1.69-1.38,3.21-3.94h0Z"/>
    <path class="cls-5" d="m103.69,101.32l1.46-1.62.54.49-.95,1.05,1.05.95.75-.84.54.49-.75.84,1.11,1,.95-1.05.54.49-1.46,1.62-3.77-3.4v-.02Z"/>
    <path class="cls-5" d="m35.25,107.58l.99.69c.3.21.48.47.53.78s-.03.61-.24.91l-1.53,2.17c-.21.3-.47.48-.77.53-.3.05-.61-.02-.91-.24l-.99-.69,2.93-4.15h0Zm-1.55,4.23c.12.09.24.12.36.1.11-.02.22-.09.3-.21l1.55-2.2c.09-.12.12-.24.1-.36-.02-.11-.09-.22-.21-.3l-.33-.23-2.09,2.97.33.23h-.01Z"/>
    <path class="cls-5" d="m39.79,110.57l2.14,1.19-.35.63-.74-.41-2.12,3.81-.67-.37,2.12-3.81-.74-.41.35-.63h.01Z"/>
    <path class="cls-5" d="m43.06,112.34l1.98.93-.31.66-1.28-.6-.6,1.28,1.02.48-.31.66-1.02-.48-.63,1.35,1.28.6-.31.66-1.98-.93,2.17-4.6h0Z"/>
    <path class="cls-5" d="m44.75,118.37c-.13-.29-.13-.6,0-.93l1.02-2.63c.13-.33.34-.56.63-.69.29-.13.6-.13.93,0,.33.13.56.34.69.63s.13.6,0,.93l-.22.55-.7-.27.22-.55c.05-.14.06-.26,0-.37s-.13-.19-.25-.24c-.12-.05-.24-.05-.35,0s-.19.14-.24.28l-1.02,2.63c-.05.14-.06.26,0,.37s.13.19.25.24c.12.05.24.05.35,0s.19-.14.24-.28l.26-.68.7.27-.26.68c-.13.33-.34.56-.63.69-.29.13-.6.13-.93,0-.33-.13-.56-.34-.69-.63Z"/>
    <path class="cls-5" d="m48.21,119.93l1.48-4.86.74.22-.63,2.05.87.27.63-2.05.74.22-1.48,4.86-.74-.22.65-2.12-.87-.27-.65,2.12-.74-.22Z"/>
    <path class="cls-5" d="m53.46,116.17l.83.18.22,3.54.74-3.33.74.16-1.1,4.96-.79-.18-.29-3.4-.71,3.17-.74-.16,1.1-4.96v.02Z"/>
    <path class="cls-5" d="m57.02,121.79c-.19-.25-.26-.56-.21-.93l.39-2.75c.05-.36.21-.64.46-.83.26-.19.57-.26.93-.21.36.05.64.21.84.46.19.26.26.56.21.93l-.39,2.74c-.05.36-.21.64-.46.83-.26.19-.57.26-.93.21-.36-.05-.64-.21-.84-.46h0Zm1.3-.34c.09-.07.15-.19.17-.35l.39-2.75c.02-.16,0-.29-.07-.38-.07-.1-.18-.16-.32-.18-.14-.02-.26,0-.36.08s-.15.19-.17.35l-.39,2.75c-.02.16,0,.29.07.38.07.1.18.16.32.18.14.02.26,0,.36-.08Z"/>
    <path class="cls-5" d="m61.24,117.47l.77.06-.31,4.34,1.37.1-.05.72-2.14-.15.36-5.07Z"/>
    <path class="cls-5" d="m64.89,122.48c-.23-.23-.34-.52-.34-.89v-2.77c0-.37.12-.66.35-.89.23-.22.53-.34.89-.34s.67.11.89.34c.23.23.34.52.34.89v2.77c0,.37-.12.66-.35.89-.23.22-.53.34-.89.34s-.67-.11-.89-.34Zm1.24-.52c.08-.09.12-.21.12-.37v-2.77c0-.16-.04-.28-.12-.37-.08-.09-.2-.13-.34-.13-.15,0-.26.04-.34.13s-.12.21-.12.37v2.77c0,.16.04.28.12.37.08.09.2.13.34.13.15,0,.26-.04.34-.13Z"/>
    <path class="cls-5" d="m70.2,119.08l-.03-.43c0-.16-.06-.28-.15-.36s-.2-.12-.35-.11c-.14,0-.26.06-.33.15-.08.09-.11.22-.1.38l.2,2.77c0,.16.06.28.15.36s.2.12.35.11c.14-.01.25-.06.33-.15.08-.09.11-.22.1-.38l-.06-.9-.46.03-.05-.72,1.23-.09.12,1.62c.03.37-.07.67-.28.91-.21.24-.5.37-.87.4s-.67-.06-.91-.27-.38-.5-.4-.86l-.2-2.77c-.03-.37.07-.67.28-.91.21-.24.5-.37.87-.4s.67.06.91.27.38.5.4.86l.03.43-.77.05h0Z"/>
    <path class="cls-5" d="m74.65,116.95l-.61,3.07.3,2.11-.76.11-.3-2.11-1.43-2.78.81-.12.86,1.84.33-2,.8-.11h0Z"/>
    <path class="cls-5" d="m79.44,119.98l-.8.19.1,1.13-.75.18-.37-5.14,1-.24,2.01,4.74-.76.18-.43-1.05h0Zm-.27-.7l-.8-2,.19,2.14.61-.15h0Z"/>
    <path class="cls-5" d="m80.64,115.56l2.08-.66.22.69-1.35.43.43,1.35,1.07-.34.22.69-1.07.34.45,1.42,1.35-.43.22.69-2.08.66-1.53-4.85h0Z"/>
    <path class="cls-5" d="m87.43,118.55l-1.29-1.74-.37.15.77,1.95-.72.28-1.87-4.72,1.12-.44c.34-.14.65-.14.94-.02.28.12.49.36.63.7l.21.52c.09.22.12.42.1.62-.02.2-.09.38-.21.54l1.44,1.87-.74.29h-.01Zm-1.93-2.27l.37-.15c.14-.06.23-.14.28-.24.05-.11.04-.23,0-.37l-.22-.55c-.06-.14-.14-.23-.24-.28-.11-.05-.23-.04-.37.01l-.37.15.56,1.42h0Z"/>
    <path class="cls-5" d="m87.52,112.97l.7-.33,2.15,4.6-.7.33-2.15-4.6Z"/>
    <path class="cls-5" d="m92.84,114.72l-.73.39.39,1.07-.68.37-1.68-4.87.91-.49,3.16,4.06-.69.37-.68-.91h0Zm-.44-.6l-1.29-1.72.74,2.02.55-.3h0Z"/>
    <path class="cls-5" d="m92.87,110.14l.65-.41,2.34,3.68,1.16-.74.39.61-1.81,1.15-2.73-4.29Z"/>
    <path class="cls-5" d="m96.79,107.49l1.7-1.31.44.57-1.09.84.91,1.18.86-.67.44.57-.86.67,1.31,1.69-.61.47-3.11-4.02h0Z"/>
    <path class="cls-5" d="m99.5,105.32l.58-.5,3.33,3.84-.58.5-3.33-3.84Z"/>
    <path class="cls-5" d="m106.03,106.2l-1.87-1.11-.29.28,1.47,1.5-.55.54-3.55-3.63.86-.84c.26-.26.55-.38.86-.38s.59.14.85.4l.39.4c.16.17.27.35.33.54s.06.38,0,.58l2.05,1.17-.57.56h0Zm-2.66-1.35l.29-.28c.11-.1.16-.22.16-.33,0-.12-.05-.23-.16-.34l-.41-.42c-.1-.11-.22-.16-.33-.16-.12,0-.23.05-.34.16l-.29.28,1.07,1.1h0Z"/>
    <path class="cls-5" d="m106.02,98.66l1.33-1.69.57.45-.85,1.08,1.17.92.67-.86.57.45-.67.86,1.68,1.32-.48.61-4-3.14h0Z"/>
    <path class="cls-5" d="m108.12,95.89l.44-.63,4.16,2.91-.44.63-4.16-2.91Z"/>
    <path class="cls-5" d="m111.64,93.41l-.37-.22c-.14-.08-.26-.11-.38-.09-.12.02-.21.1-.29.22-.08.12-.1.24-.07.36s.11.22.25.3l2.36,1.45c.14.08.26.11.38.09.12-.02.21-.1.29-.22.08-.12.1-.24.07-.36s-.11-.22-.25-.3l-.77-.47-.24.4-.62-.38.65-1.05,1.39.85c.31.19.51.44.58.76.07.31,0,.62-.18.94-.19.31-.44.51-.75.58-.31.08-.62.02-.94-.17l-2.36-1.45c-.31-.19-.51-.44-.58-.76-.07-.31,0-.62.18-.94.19-.31.44-.51.75-.58.31-.08.62-.02.94.17l.36.22-.4.66h0Z"/>
    <path class="cls-5" d="m115.89,93.04l-4.52-2.33.35-.68,1.9.98.42-.81-1.9-.98.35-.68,4.52,2.33-.35.68-1.97-1.01-.42.81,1.97,1.02-.35.68h0Z"/>
    <path class="cls-5" d="m113.03,87.4l.97-2.26.67.29-.33.77,4,1.71-.3.71-4-1.71-.33.77-.67-.29h0Z"/>
    <path class="cls-5" d="m114.46,83.91l.26-.72,4.78,1.73-.26.72-4.78-1.73Z"/>
    <path class="cls-5" d="m115.23,81.73l.24-.81,3.55.02-3.27-.96.21-.72,4.88,1.43-.23.78-3.41.06,3.12.91-.21.72-4.88-1.43Z"/>
    <path class="cls-5" d="m118.2,76.56l-.42-.09c-.16-.03-.29-.02-.39.04s-.17.16-.2.31c-.03.14,0,.26.06.36.07.1.18.16.34.2l2.71.58c.16.03.29.02.39-.04s.17-.16.2-.31c.03-.14,0-.26-.06-.36-.07-.1-.18-.16-.34-.2l-.88-.19-.1.45-.71-.15.26-1.21,1.59.34c.36.08.63.25.8.52s.22.58.14.94-.25.63-.52.8c-.27.18-.58.23-.94.15l-2.71-.57c-.36-.08-.63-.25-.8-.52s-.22-.58-.15-.94c.08-.36.25-.63.52-.8.27-.18.58-.23.94-.15l.42.09-.16.75h.01Z"/>
  </g>
  <g>
    <path class="cls-5" d="m19.43,48.76c-.52.22-1.08.21-1.67-.03l-4.67-1.89c-.59-.24-1-.62-1.22-1.14s-.21-1.08.03-1.67c.24-.59.62-1,1.14-1.22s1.08-.21,1.67.03l.99.4-.51,1.25-.99-.4c-.24-.1-.46-.11-.66-.03s-.34.23-.43.44c-.09.22-.09.42,0,.62s.25.34.49.44l4.67,1.89c.24.1.46.11.66.03s.34-.22.43-.44c.09-.22.09-.42,0-.62-.09-.19-.25-.34-.49-.44l-1.2-.49.51-1.25,1.2.49c.59.24,1,.62,1.22,1.14s.21,1.08-.03,1.67c-.24.59-.62,1-1.14,1.22Z"/>
    <path class="cls-5" d="m14.36,38.97l1.92-3.41,1.13.64-1.24,2.21,2.21,1.24.99-1.75,1.13.64-.99,1.75,2.32,1.31,1.24-2.21,1.13.64-1.92,3.41-7.92-4.46h0Z"/>
    <path class="cls-5" d="m18.14,32.69l.92-1.21,5.93,2.28-4.87-3.68.81-1.08,7.25,5.48-.88,1.16-5.74-2.06,4.64,3.51-.81,1.08-7.25-5.48h0Z"/>
    <path class="cls-5" d="m23.12,26.49l3.09-3.12.92.91-1.06,1.07,5.53,5.49-.97.98-5.53-5.49-1.06,1.07s-.92-.91-.92-.91Z"/>
    <path class="cls-5" d="m28.65,21.24l3.08-2.41.8,1.02-1.99,1.56,1.56,1.99,1.58-1.24.8,1.02-1.58,1.24,1.64,2.1,1.99-1.56.8,1.02-3.08,2.41-5.61-7.16h0Z"/>
    <path class="cls-5" d="m41.82,23.17l-2.77-2.72-.61.36,1.91,3.23-1.19.7-4.63-7.83,1.86-1.1c.57-.33,1.12-.43,1.65-.29.54.14.97.49,1.31,1.06l.51.86c.21.36.33.72.35,1.08s-.05.69-.22,1.01l3.06,2.91-1.23.73h0Zm-4.05-3.48l.61-.36c.23-.14.37-.31.42-.51s0-.42-.13-.65l-.54-.91c-.14-.23-.31-.37-.51-.42s-.42,0-.65.13l-.61.36,1.39,2.36h.02Z"/>
    <path class="cls-5" d="m48.67,19.46c-.51-.25-.88-.69-1.08-1.32l-1.57-4.71c-.21-.62-.18-1.19.07-1.7.26-.51.7-.87,1.32-1.08.62-.21,1.19-.19,1.71.07.51.25.88.69,1.08,1.32l1.57,4.71c.21.62.18,1.19-.07,1.7-.26.51-.7.87-1.32,1.08-.62.21-1.19.19-1.71-.07Zm1.8-1.58c.09-.19.09-.43,0-.7l-1.57-4.71c-.09-.27-.23-.46-.42-.56s-.41-.11-.65-.03c-.25.08-.41.22-.5.42-.09.19-.09.43,0,.7l1.57,4.71c.09.27.23.46.42.56s.41.11.65.03c.25-.08.41-.22.5-.42Z"/>
    <path class="cls-5" d="m53.02,9.19l3.77-.75.25,1.27-2.42.48.52,2.61,1.91-.38.25,1.27-1.91.38.75,3.76-1.35.27-1.77-8.92h0Z"/>
    <path class="cls-5" d="m64.29,7.74h3.91v1.3h-2.53v2.53h2.01v1.3h-2.01v2.66h2.53v1.3h-3.91V7.73s0,.01,0,.01Z"/>
    <path class="cls-5" d="m73.64,17.43l-.73-3.3-1.52,2.99-1.42-.19,2.42-4.42-1.08-4.58,1.47.2.68,3.03,1.4-2.75,1.42.19-2.3,4.18,1.14,4.83-1.47-.2v.02Z"/>
    <path class="cls-5" d="m77.6,17.74c-.28-.49-.33-1.04-.16-1.66l1.33-4.86c.17-.62.5-1.07.99-1.35.49-.28,1.04-.33,1.66-.16.62.17,1.07.5,1.35.99s.33,1.04.16,1.66l-.28,1.03-1.3-.36.28-1.03c.07-.25.05-.47-.05-.66s-.26-.31-.49-.38c-.23-.06-.43-.04-.61.07-.18.11-.31.29-.38.54l-1.33,4.86c-.07.25-.05.47.05.66s.26.31.49.38c.23.06.43.04.61-.07.18-.11.31-.29.38-.54l.34-1.25,1.3.36-.34,1.25c-.17.62-.5,1.07-.99,1.35s-1.04.33-1.66.16c-.62-.17-1.07-.5-1.35-.99Z"/>
    <path class="cls-5" d="m86.73,11.56l3.61,1.51-.5,1.2-2.34-.98-.98,2.34,1.86.78-.5,1.2-1.86-.78-1.03,2.46,2.34.98-.5,1.2-3.61-1.51,3.51-8.39h0Z"/>
    <path class="cls-5" d="m93.3,14.55l1.2.68-3.86,6.77,2.13,1.22-.64,1.13-3.33-1.9,4.5-7.9Z"/>
    <path class="cls-5" d="m99.3,18.22l1.11.82-4.64,6.26,1.97,1.46-.77,1.04-3.08-2.28,5.42-7.3h0Z"/>
    <path class="cls-5" d="m104.82,22.58l2.83,2.69-.9.94-1.84-1.75-1.75,1.84,1.46,1.39-.9.94-1.46-1.39-1.83,1.93,1.84,1.75-.9.94-2.83-2.69,6.27-6.59h0Z"/>
    <path class="cls-5" d="m109.99,27.8l.95,1.19-3.67,5.18,4.77-3.82.84,1.05-7.1,5.68-.91-1.14,3.41-5.06-4.54,3.64-.84-1.05,7.1-5.68h-.01Z"/>
    <path class="cls-5" d="m107.86,39.38c.14-.55.48-.98,1.04-1.31l4.34-2.57c.55-.33,1.1-.42,1.65-.28.55.14.98.48,1.31,1.04.33.55.42,1.1.28,1.65-.14.55-.49.98-1.04,1.31l-.92.54-.69-1.16.92-.54c.22-.13.36-.3.42-.51s.03-.41-.09-.61-.28-.33-.49-.37c-.21-.05-.43,0-.65.13l-4.34,2.57c-.22.13-.36.3-.42.51s-.03.41.09.61.28.33.49.37c.21.05.43,0,.65-.13l1.12-.66.69,1.16-1.12.66c-.55.33-1.1.42-1.65.28-.55-.14-.98-.49-1.31-1.04s-.42-1.1-.28-1.65Z"/>
    <path class="cls-5" d="m118.72,41.29l1.54,3.59-1.19.51-1-2.33-2.33,1,.8,1.85-1.19.51-.8-1.85-2.45,1.05,1,2.33-1.19.51-1.54-3.59,8.35-3.59h0Z"/>
  </g>
  <path class="cls-4" d="m19.6,65.97c0-25.6,20.75-46.35,46.36-46.36h0c25.6,0,46.35,20.75,46.35,46.36h0c0,25.6-20.75,46.35-46.35,46.35h0c-25.6,0-46.35-20.75-46.36-46.35h0Zm15.19-31.16c-7.98,7.98-12.91,18.99-12.91,31.16h0c0,12.17,4.93,23.19,12.91,31.16h0c7.98,7.98,18.99,12.91,31.16,12.91h0c12.17,0,23.18-4.93,31.16-12.91h0c7.98-7.98,12.91-18.99,12.91-31.16h0c0-12.17-4.93-23.19-12.91-31.16h0c-7.98-7.98-18.99-12.91-31.16-12.91h0c-12.17,0-23.19,4.93-31.16,12.91h0Z"/>
  <g>
    <polygon class="cls-4" points="3.97 55.2 3.97 52.92 21.7 52.92 21.7 55.2 3.97 55.2 3.97 55.2"/>
    <polygon class="cls-4" points="3.97 72.41 3.97 70.13 21.7 70.13 21.7 72.41 3.97 72.41 3.97 72.41"/>
  </g>
  <g>
    <polygon class="cls-4" points="110.15 55.2 110.15 52.92 127.89 52.92 127.89 55.2 110.15 55.2 110.15 55.2"/>
    <polygon class="cls-4" points="110.15 72.41 110.15 70.13 127.89 70.13 127.89 72.41 110.15 72.41 110.15 72.41"/>
  </g>
  <g>
    <path class="cls-5" d="m8.65,62.41c0-1.87,1.51-3.38,3.38-3.38h0c1.87,0,3.38,1.51,3.38,3.38h0c0,1.87-1.51,3.38-3.38,3.38h0c-1.87,0-3.38-1.51-3.38-3.38h0Zm1.12-2.26c-.58.58-.94,1.38-.94,2.26h0c0,.88.36,1.68.94,2.26h0c.58.58,1.38.94,2.26.94h0c.88,0,1.68-.36,2.26-.94h0c.58-.58.94-1.38.94-2.26h0c0-.88-.36-1.68-.94-2.26h0c-.58-.58-1.38-.94-2.26-.94h0c-.88,0-1.68.36-2.26.94h0Z"/>
    <path class="cls-5" d="m9.81,62.41c0-1.23,1-2.22,2.22-2.22h0c1.23,0,2.22,1,2.22,2.22h0c0,1.23-1,2.22-2.22,2.22h0c-1.23,0-2.22-1-2.22-2.22h0Zm.24,0c0,1.09.89,1.98,1.98,1.98h0c1.09,0,1.98-.89,1.98-1.98h0c0-1.09-.89-1.98-1.98-1.98h0c-1.09,0-1.98.89-1.98,1.98h0Z"/>
    <path class="cls-5" d="m10.81,61.67h-.42s-.38.74,0,1.51h.44c-.14-.22-.23-.49-.23-.77s.07-.52.2-.73h.01Zm2.84,0h-.4c.13.21.2.47.2.73,0,.29-.08.55-.23.77h.43s.42-.74,0-1.51h0Z"/>
    <path class="cls-5" d="m12.03,61.88c-.29,0-.53.24-.53.53s.24.53.53.53.53-.24.53-.53-.24-.53-.53-.53Z"/>
    <path class="cls-5" d="m15.62,58.11s-1.27,0-1.93-.38c-.65-.37-1.1-.67-1.63-.7h-.04c-.53.04-.98.33-1.63.7-.66.38-1.93.38-1.93.38l1.51,1.73c.89-.68,1.85-.72,2.05-.72h.04c.2,0,1.16.05,2.05.72l1.51-1.73h0Z"/>
    <path class="cls-5" d="m15.62,66.72s-1.27,0-1.93.38c-.65.37-1.1.67-1.63.7h-.04c-.53-.04-.98-.33-1.63-.7-.66-.38-1.93-.38-1.93-.38l1.51-1.73c.89.68,1.85.72,2.05.72h.04c.2,0,1.16-.05,2.05-.72l1.51,1.73h0Z"/>
    <path class="cls-5" d="m16.34,66s0-1.27.38-1.93c.37-.65.67-1.1.7-1.63h0v-.04h0c-.03-.53-.33-.98-.7-1.63-.38-.66-.38-1.93-.38-1.93l-1.73,1.51c.68.89.72,1.85.72,2.05h0v.04h0c0,.2-.05,1.16-.72,2.05,0,0,1.73,1.51,1.73,1.51Z"/>
    <path class="cls-5" d="m7.73,66s0-1.27-.38-1.93c-.37-.65-.67-1.1-.7-1.63h0v-.04h0c.03-.53.33-.98.7-1.63.38-.66.38-1.93.38-1.93l1.73,1.51c-.68.89-.72,1.85-.72,2.05h0v.04h0c0,.2.05,1.16.72,2.05,0,0-1.73,1.51-1.73,1.51Z"/>
    <path class="cls-5" d="m12.68,62.74c-.12.23-.37.39-.65.39-.4,0-.73-.33-.73-.73s.33-.73.73-.73c.3,0,.55.18.67.43l.64-.28c-.22-.5-.72-.85-1.3-.85-.79,0-1.42.64-1.42,1.42s.64,1.42,1.42,1.42c.57,0,1.06-.34,1.29-.82l-.64-.27v.02Z"/>
  </g>
  <g>
    <path class="cls-5" d="m116.09,62.41c0-1.87,1.51-3.38,3.38-3.38h0c1.87,0,3.38,1.51,3.38,3.38h0c0,1.87-1.51,3.38-3.38,3.38h0c-1.87,0-3.38-1.51-3.38-3.38h0Zm1.12-2.26c-.58.58-.94,1.38-.94,2.26h0c0,.88.36,1.68.94,2.26h0c.58.58,1.38.94,2.26.94h0c.88,0,1.68-.36,2.26-.94h0c.58-.58.94-1.38.94-2.26h0c0-.88-.36-1.68-.94-2.26h0c-.58-.58-1.38-.94-2.26-.94h0c-.88,0-1.68.36-2.26.94h0Z"/>
    <path class="cls-5" d="m117.25,62.41c0-1.23,1-2.22,2.22-2.22h0c1.23,0,2.22,1,2.22,2.22h0c0,1.23-1,2.22-2.22,2.22h0c-1.23,0-2.22-1-2.22-2.22h0Zm.24,0c0,1.09.89,1.98,1.98,1.98h0c1.09,0,1.98-.89,1.98-1.98h0c0-1.09-.89-1.98-1.98-1.98h0c-1.09,0-1.98.89-1.98,1.98h0Z"/>
    <path class="cls-5" d="m118.25,61.67h-.42s-.38.74,0,1.51h.44c-.15-.22-.23-.49-.23-.77s.07-.52.2-.73h0Zm2.84,0h-.4c.13.21.2.47.2.73,0,.29-.08.55-.23.77h.43s.42-.74,0-1.51h0Z"/>
    <path class="cls-5" d="m119.47,61.88c-.29,0-.53.24-.53.53s.24.53.53.53.53-.24.53-.53-.24-.53-.53-.53Z"/>
    <path class="cls-5" d="m123.05,58.11s-1.27,0-1.93-.38c-.65-.37-1.1-.67-1.63-.7h-.04c-.53.04-.98.33-1.63.7-.66.38-1.93.38-1.93.38l1.51,1.73c.89-.68,1.85-.72,2.05-.72h.04c.2,0,1.16.05,2.05.72l1.51-1.73Z"/>
    <path class="cls-5" d="m123.05,66.72s-1.27,0-1.93.38c-.65.37-1.1.67-1.63.7h-.04c-.53-.04-.98-.33-1.63-.7-.66-.38-1.93-.38-1.93-.38l1.51-1.73c.89.68,1.85.72,2.05.72h.04c.2,0,1.16-.05,2.05-.72l1.51,1.73Z"/>
    <path class="cls-5" d="m123.78,66s0-1.27.38-1.93c.37-.65.67-1.1.7-1.63h0v-.04h0c-.03-.53-.33-.98-.7-1.63-.38-.66-.38-1.93-.38-1.93l-1.73,1.51c.68.89.72,1.85.72,2.05h0v.04h0c0,.2-.05,1.16-.72,2.05,0,0,1.73,1.51,1.73,1.51Z"/>
    <path class="cls-5" d="m115.16,66s0-1.27-.38-1.93c-.37-.65-.67-1.1-.7-1.63h0v-.04h0c.03-.53.33-.98.7-1.63.38-.66.38-1.93.38-1.93l1.73,1.51c-.68.89-.72,1.85-.72,2.05h0v.04h0c0,.2.05,1.16.72,2.05,0,0-1.73,1.51-1.73,1.51Z"/>
    <path class="cls-5" d="m120.12,62.74c-.12.23-.37.39-.65.39-.4,0-.73-.33-.73-.73s.33-.73.73-.73c.3,0,.55.18.67.43l.64-.28c-.22-.5-.72-.85-1.3-.85-.79,0-1.42.64-1.42,1.42s.64,1.42,1.42,1.42c.57,0,1.06-.34,1.29-.82l-.64-.27v.02Z"/>
  </g>
  <path class="cls-6" d="m50.42,91.85c-.59-3.26-.34-6.55.45-9.9-.28.14-.57.28-.86.4-.61.27-1.25.5-1.9.7-.95,4.83-.39,10.21,3.16,17.7,0,0-9.4-4.2-9.98-16.81-5.09-.11-9.67-1.95-12.99-5.11-.61-.57-1.17-1.19-1.69-1.85,4.71,16.85,19.94,29.3,38.17,29.82-3-.84-12.43-4.29-14.35-14.96h0Z"/>
  <path class="cls-5" d="m68.01,57.19c-7.42,0-12.84,4.99-12.84,12.02s5.42,12.02,12.84,12.02,12.8-4.99,12.8-12.02-5.38-12.02-12.8-12.02Zm0,18.48c-3.38,0-5.99-2.43-5.99-6.47s2.6-6.47,5.99-6.47,5.94,2.43,5.94,6.47-2.56,6.47-5.94,6.47Zm-25.82-19.7c3.04,0,5.6,1.21,7.64,3.56l4.51-4.17c-2.86-3.47-7.25-5.38-12.5-5.38-9.46,0-16.49,6.55-16.49,15.71s7.03,15.71,16.45,15.71c5.29,0,9.68-1.91,12.54-5.42l-4.51-4.17c-2.04,2.39-4.6,3.6-7.64,3.6-5.68,0-9.72-3.99-9.72-9.72s4.04-9.72,9.72-9.72h0Zm47.99,19.27v-7.03h14.1v-5.47h-14.1v-6.6h15.42c-.48-1.94-1.09-3.82-1.84-5.64h-20.57v30.37h20.79c.71-1.82,1.3-3.7,1.75-5.64h-15.56,0Z"/>
  <g>
    <path class="cls-1" d="m42.2,76.14c-3.01,0-5.64-1.06-7.5-2.92s-2.94-4.49-2.94-7.52c0-.26,0-.51.03-.76h-5.67c0,.25-.02.51-.02.76,0,4.39,1.68,8.11,4.47,10.76,2.79,2.65,6.71,4.22,11.25,4.22,4.85,0,8.82-1.64,11.53-4.64l-3.46-3.19c-2.08,2.17-4.7,3.31-7.68,3.3h0Z"/>
    <path class="cls-2" d="m73.54,64.93c.74,1.16,1.15,2.61,1.15,4.28,0,2.17-.7,3.99-1.9,5.25s-2.89,1.94-4.75,1.94h0c-1.86,0-3.57-.68-4.79-1.94-1.22-1.26-1.93-3.08-1.93-5.25,0-1.67.42-3.12,1.16-4.28h-5.77c-.51,1.29-.79,2.73-.79,4.28,0,3.33,1.27,6.12,3.41,8.11s5.16,3.18,8.71,3.18,6.56-1.19,8.69-3.18,3.38-4.79,3.39-8.12c0-1.55-.28-2.99-.79-4.28h-5.78Z"/>
    <path class="cls-3" d="m89.46,67.48h14.1v-2.55h-19.64v15.22h19.57c.52-1.36.96-2.76,1.33-4.19h-15.36v-8.48h0Z"/>
  </g>
  <path class="cls-6" d="m79.62,59.38c.36.39.71.8,1.02,1.24v-12.67h21.99c-6.63-13.47-20.47-22.76-36.48-22.84,3.24,3.97,11.83,15.56,13.27,28.32.23,2.01.28,4,.2,5.96h0Z"/>
  <path class="cls-7" d="m89.05,40.34c-3.26-4.32-14.6,2.61-26.34,15.68h1.81c9.75-10.42,18.91-15.77,21.63-12.16,3.14,4.16-3.49,18.65-14.79,32.37-11.31,13.72-23.01,21.47-26.15,17.32-1.37-1.81-.88-5.59,1.04-10.41-.38.1-.77.15-1.16.15-.26,0-.51-.02-.76-.07-2.87,6.43-3.76,11.54-2.02,13.85,3.58,4.75,16.95-4.1,29.86-19.77,12.91-15.66,20.47-32.21,16.89-36.96h-.01Z"/>
  <path class="cls-4" d="m88.53,39.24c-3.35-4.45-15.3,3.04-27.41,16.89.52-.2,1.07-.3,1.63-.3.13,0,.27,0,.4.02,10.07-11.03,19.69-16.8,22.49-13.09,3.14,4.16-3.49,18.65-14.79,32.37-11.31,13.72-23.01,21.47-26.15,17.32-1.17-1.55-.98-4.54.3-8.39-.26.05-.52.07-.79.07-.4,0-.8-.05-1.18-.16-2.23,5.56-2.81,9.91-1.24,11.99,3.58,4.75,16.95-4.1,29.86-19.77,12.91-15.66,20.47-32.21,16.89-36.96h-.01Z"/>
  <path class="cls-6" d="m80.64,77.8c-.51.69-1.07,1.34-1.7,1.92-1.1,1.03-2.38,1.88-3.78,2.54-.55,2.99-.6,5.41.44,7.05,3.56,5.6,10.69,4.32,14.25-5.34,0,0,0,15.11-10.38,20.57,10.34-3.62,18.78-11.29,23.43-21.1h-22.26v-5.64h0Z"/>
  <path class="cls-7" d="m79.17,51.36s-2.05-10.64-7.93-19.04c-4.85,14.28-8.03,18.29-8.03,18.29l-2.71,4.76-.84,1.68s2.99-.47,3.36-.56,4.2-1.68,4.2-1.68"/>
  <path class="cls-6" d="m28.3,52.55c3.44-3.26,8.23-5.12,13.55-5.12,5.35-.02,10.16,1.82,13.54,5.28,1-2.54,1.68-5.22,1.81-8.1,0,0,2.3,5.12.66,13.4,1.28-1.02,2.73-1.83,4.33-2.4,4.13-9.5,6.9-19.58,3.25-30.5-18.21.22-33.55,12.36-38.59,28.98.45-.54.93-1.06,1.45-1.55h0Z"/>
</svg>
