<?xml version="1.0" encoding="UTF-8"?><svg id="Layer_1" xmlns="http://www.w3.org/2000/svg" xmlns:xlink="http://www.w3.org/1999/xlink" viewBox="0 0 418.93 444.98"><defs><style>.cls-1{fill:#f6d047;}.cls-2{fill:url(#linear-gradient);}.cls-3{fill:#001970;}.cls-4{fill:#0b0b0b;}.cls-5{fill:#fff;}.cls-6{fill:#c3002f;}</style><linearGradient id="linear-gradient" x1="274.4" y1="186.37" x2="385.4" y2="118.37" gradientTransform="translate(0 446) scale(1 -1)" gradientUnits="userSpaceOnUse"><stop offset="0" stop-color="#7c7c7c"/><stop offset=".32" stop-color="#444"/><stop offset=".55" stop-color="#1f1f1f"/><stop offset=".65" stop-color="#2c2c2c"/><stop offset=".82" stop-color="#4f4f4f"/><stop offset="1" stop-color="#7c7c7c"/></linearGradient></defs><path class="cls-4" d="M384.93,104.45c.23-7.63-2.05-8.32-5.58-8.66-3.53-.34-5.92-.91-5.92-.91C272.33,72.96,213.23,4.46,209.47,0c-3.85,4.44-64.5,73.01-163.95,94.89,0,0-2.39.57-5.92.91-3.53.34-5.81,1.02-5.58,8.66.12,3.96-2.61,64.08,20.73,136.36,21.68,67.12,72.45,151.39,154.01,203.91.92.59,1.43,0,1.43,0,89.02-52.86,132.16-132,153.84-199.12,23.35-72.28,20.79-137.18,20.91-141.14v-.02Z"/><path class="cls-2" d="M370.19,114.78c-.11,3.64,1.43,60.21-19.96,126.71-19.86,61.76-65.16,141.25-140.12,186.36,0,0-.48.57-1.31,0-68.29-46.59-119.52-128.02-139.38-189.78-21.39-66.5-20.59-119.65-20.7-123.29v-3.27c0-1.48.23-1.97,1.5-2.28,1.42-.34,8.32-2.45,10.19-3.08C154.7,81.22,205.93,22.76,209.46,18.68c3.45,4.11,56.34,65.91,150.17,87.83,4.1,1.14,7.4,2.16,8.71,2.51,1.31.34,1.78.73,1.78,2.15s.07,3.62.07,3.62h0Z"/><path class="cls-4" d="M418.81,355.46s-33.58-118.67-35.03-123.71c-1.45-5.04-.11-4.39-10.37-4.39H45.52c-10.25,0-8.91-.65-10.37,4.39C33.7,236.79.12,355.46.12,355.46c0,0-.85,1.14,1.99,1.14h414.7c2.85,0,1.99-1.14,1.99-1.14h.01Z"/><path class="cls-5" d="M79.51,256.89c7.85,0,24.85,2.86,24.85,12.93v7.94h-8.59v-5.08c0-5.73-9.88-7.85-15.89-7.85-13.95,0-24.2,10.25-24.2,25.03s10.53,26.42,24.76,26.42c4.62,0,16.26-1.66,16.26-7.67v-5.08h8.59v7.94c0,9.61-16.35,12.84-25.4,12.84-19.58,0-33.72-15.06-33.72-34.09s14.5-33.35,33.35-33.35v.02Z"/><path class="cls-5" d="M148.32,256.89c18.84,0,33.53,14.5,33.53,33.26s-14.69,34.18-33.53,34.18-33.53-14.96-33.53-34.18,14.59-33.26,33.53-33.26ZM148.32,316.11c13.21,0,23.93-11.27,23.93-25.96s-10.72-25.13-23.93-25.13-24.02,10.9-24.02,25.13,10.72,25.96,24.02,25.96Z"/><path class="cls-5" d="M204.11,316.02h8.22v-50.44h-15.33v10.16h-8.04v-17.74h55.98v17.74h-8.04v-10.16h-15.33v50.44h8.22v7.2h-25.68v-7.2h0Z"/><path class="cls-5" d="M244.02,316.02h6.28l20.79-58.01h10.44l20.78,58.01h6.28v7.2h-22.63v-7.2h6.93l-5.08-14.5h-23.09l-5.08,14.5h7.02v7.2h-22.63v-7.2h0ZM285.49,294.12l-7.94-22.63c-.92-2.68-1.11-4.99-1.11-4.99h-.28s-.28,2.31-1.11,4.99l-8.04,22.63h18.48,0Z"/><path class="cls-5" d="M314.49,316.02h8.13v-50.9h-8.13v-7.11h24.48v7.11h-7.11v20.51h8.41l14.23-20.51h-6v-7.11h22.08v7.11h-6.28l-16.9,23.56v.18s1.85.83,3.7,4.34l11.73,20.41c1.02,1.76,2.31,2.4,4.62,2.4h3.05v7.2h-6.56c-5.45,0-7.02-1.29-9.05-4.9l-12.56-22.54c-1.11-1.85-2.4-2.59-5.08-2.59h-5.36v22.82h8.04v7.2h-25.4v-7.2l-.04.02Z"/><path class="cls-3" d="M323,105.74c-15.15,14.45-38.51,23.24-64.41,25.55s-29.83,15.26-29.83,15.26l-8.36-18.56h12.04c.29-5.9-1.79-11.74-10.98-11.74h-17.63l-13.64,30.3s-3.93-12.95-29.83-15.26c-25.9-2.31-49.26-11.1-64.41-25.55,0,0-3.58,27.29,59.78,50.65l-1.1-.24c26.93,8.71,66.41,13.76,114.89-2.18,56.82-22.78,53.48-48.22,53.48-48.22h0Z"/><path class="cls-5" d="M154.62,156.14l-42.5-9.47s4.05,9.83,12.6,14.11c8.56,4.28,37.23,11.79,37.23,11.79l-29.95-2.54s12.03,7.88,32.88,12.79c7.49,1.76,16.12,3.15,25.75,3.63,6.58.33,12.89.49,18.83.51,5.93-.03,12.25-.18,18.83-.51,9.63-.49,18.25-1.87,25.75-3.63,20.85-4.91,32.88-12.79,32.88-12.79l-29.95,2.54s28.68-7.52,37.23-11.79c8.56-4.28,12.6-14.11,12.6-14.11l-43.59,9.71c2.18-.8,4.27-1.61,6.3-2.42-48.48,15.94-87.96,10.89-114.89,2.18h0Z"/><polygon class="cls-3" points="194.31 205.38 203.99 196.73 199.93 208.93 210.56 215.11 210.57 215.11 210.58 215.11 221.22 208.93 217.15 196.73 226.83 205.38 235.77 191.11 185.37 191.11 194.31 205.38"/><path class="cls-6" d="M214.07,178.72v-2.36l19.23-8.25c-3.66-8.6-12.18-14.63-22.11-14.63-13.26,0-24.02,10.75-24.02,24.02s10.75,24.02,24.02,24.02c10.11,0,18.76-6.25,22.3-15.1l-19.42-7.69h0Z"/><path class="cls-1" d="M223.31,177.49c0,6.69-5.42,12.12-12.12,12.12s-12.12-5.43-12.12-12.12,5.43-12.12,12.12-12.12,12.12,5.43,12.12,12.12Z"/><path class="cls-5" d="M381.55,317.23h-2.35v-1.66h6.73v1.66h-2.39v7.1h-1.99v-7.1Z"/><path class="cls-5" d="M394.34,320.98c-.04-1.05-.08-2.33-.08-3.6h-.04c-.27,1.12-.64,2.37-.98,3.39l-1.07,3.42h-1.55l-.94-3.39c-.29-1.03-.58-2.28-.79-3.42h-.03c-.05,1.18-.09,2.54-.16,3.63l-.16,3.33h-1.83l.56-8.76h2.64l.86,2.93c.27,1.01.55,2.11.74,3.13h.04c.25-1.01.55-2.17.83-3.15l.94-2.91h2.59l.48,8.76h-1.94l-.13-3.35Z"/></svg>