<?xml version="1.0" encoding="UTF-8"?>
<svg id="Layer_1" data-name="Layer 1" xmlns="http://www.w3.org/2000/svg" xmlns:xlink="http://www.w3.org/1999/xlink" viewBox="0 0 101.91 132.35">
  <defs>
    <style>
      .cls-1 {
        clip-path: url(#clippath);
      }

      .cls-2 {
        fill: none;
      }

      .cls-2, .cls-3, .cls-4, .cls-5, .cls-6, .cls-7, .cls-8, .cls-9, .cls-10, .cls-11, .cls-12, .cls-13, .cls-14, .cls-15, .cls-16, .cls-17, .cls-18, .cls-19, .cls-20, .cls-21, .cls-22, .cls-23, .cls-24, .cls-25, .cls-26, .cls-27, .cls-28, .cls-29, .cls-30, .cls-31, .cls-32, .cls-33, .cls-34, .cls-35, .cls-36, .cls-37, .cls-38, .cls-39, .cls-40, .cls-41, .cls-42, .cls-43, .cls-44, .cls-45, .cls-46, .cls-47, .cls-48, .cls-49, .cls-50, .cls-51, .cls-52, .cls-53, .cls-54, .cls-55 {
        stroke-width: 0px;
      }

      .cls-56 {
        clip-path: url(#clippath-1);
      }

      .cls-57 {
        clip-path: url(#clippath-2);
      }

      .cls-58 {
        opacity: .36;
      }

      .cls-59 {
        opacity: .6;
      }

      .cls-3 {
        fill: #f7fafb;
      }

      .cls-4 {
        fill: #f7fbf9;
      }

      .cls-5 {
        fill: #f9f9f6;
      }

      .cls-6 {
        fill: #f9fafb;
      }

      .cls-7 {
        fill: #f9fafa;
      }

      .cls-8 {
        fill: #f8fbfb;
      }

      .cls-9 {
        fill: #f9fcfc;
      }

      .cls-10 {
        fill: #f9fcfb;
      }

      .cls-11 {
        fill: #f9fcf9;
      }

      .cls-12 {
        fill: #f8fafa;
      }

      .cls-13 {
        fill: #2c347a;
      }

      .cls-14 {
        fill: #2c347b;
      }

      .cls-15 {
        fill: #2c327a;
      }

      .cls-16 {
        fill: #2d2b6e;
      }

      .cls-17 {
        fill: #2d347b;
      }

      .cls-18 {
        fill: #2b347a;
      }

      .cls-19 {
        fill: #2b347b;
      }

      .cls-20 {
        fill: #808286;
      }

      .cls-21 {
        fill: #3b3c2a;
      }

      .cls-22 {
        fill: #2e327b;
      }

      .cls-23 {
        fill: #1a214d;
      }

      .cls-24 {
        fill: #231f20;
      }

      .cls-25 {
        fill: #d45227;
      }

      .cls-26 {
        fill: #cc2429;
      }

      .cls-27 {
        fill: #cc2529;
      }

      .cls-28 {
        fill: #ce262a;
      }

      .cls-29 {
        fill: #ce2529;
      }

      .cls-30 {
        fill: #cf2429;
      }

      .cls-31 {
        fill: #cd2429;
      }

      .cls-32 {
        fill: #d9222a;
      }

      .cls-33 {
        fill: #d81f2f;
      }

      .cls-34 {
        fill: #c39d47;
      }

      .cls-35 {
        fill: #cf2529;
      }

      .cls-36 {
        fill: #cf252a;
      }

      .cls-37 {
        fill: #cf252b;
      }

      .cls-38 {
        fill: #d02529;
      }

      .cls-39 {
        fill: #8b8c90;
      }

      .cls-40 {
        fill: #fff;
      }

      .cls-41 {
        fill: #ede836;
      }

      .cls-42 {
        fill: #f5bd24;
      }

      .cls-43 {
        fill: #fff100;
      }

      .cls-44 {
        fill: #fbfbf8;
      }

      .cls-45 {
        fill: #fbfbf9;
      }

      .cls-46 {
        fill: #fbfcfc;
      }

      .cls-47 {
        fill: #fbfcfa;
      }

      .cls-48 {
        fill: #fbfcfb;
      }

      .cls-49 {
        fill: #fbfcf8;
      }

      .cls-50 {
        fill: #fbf9f7;
      }

      .cls-51 {
        fill: #fcfdfb;
      }

      .cls-52 {
        fill: #fcfdfc;
      }

      .cls-53 {
        fill: #fced23;
      }

      .cls-54 {
        fill: #00adee;
      }

      .cls-55 {
        fill: #010101;
      }
    </style>
    <clipPath id="clippath">
      <rect class="cls-2" x="8.04" y="27.97" width="84.77" height="85.85"/>
    </clipPath>
    <clipPath id="clippath-1">
      <rect class="cls-2" x="28.7" y="48.47" width="44.5" height="44.51"/>
    </clipPath>
    <clipPath id="clippath-2">
      <rect class="cls-2" x="37.33" y="65.14" width="27.39" height="11.27"/>
    </clipPath>
  </defs>
  <g>
    <path class="cls-55" d="m45.44.62c.58.05,1.13-.17,1.71-.14h8.95c.54,0,1.05.18,1.59.14.92-.03,1.83.04,2.73.22.64.07,1.29-.02,1.93.09,1.43.21,2.85.46,4.29.6.85.14,1.69.38,2.55.48.75.2,1.54.2,2.28.47,3.25.67,6.44,1.6,9.57,2.69,1.32.38,2.57.95,3.85,1.42.43.25.9.39,1.37.56,1.52.72,3.03,1.47,4.54,2.21.56.27,1.07.65,1.63.92,1.08.52,2.04,1.25,3.07,1.85,1.66,1.09,3.26,2.26,4.83,3.48.56.43,1.02.96,1.58,1.39v81.85c-.65.46-1.11,1.12-1.75,1.6-.92.67-1.58,1.62-2.51,2.27-.64.58-1.3,1.15-1.9,1.78-.44.47-1.03.76-1.51,1.19-.71.68-1.42,1.36-2.21,1.96-.69.53-1.23,1.23-1.98,1.68-1.99,1.56-3.93,3.18-5.93,4.72-.48.43-1.06.73-1.58,1.12-1.05.89-2.19,1.66-3.33,2.43-.65.55-1.41.95-2.11,1.45-.85.66-1.82,1.15-2.68,1.8-2.74,1.78-5.53,3.47-8.42,4.98-.98.66-2.1,1.07-3.12,1.65-.88.5-1.84.85-2.76,1.29-1.67.77-3.38,1.43-5.09,2.11-1.28.36-2.49,1-3.82,1.18-1.06.06-2.05-.45-3.06-.68-.85-.18-1.59-.62-2.4-.91-.91-.33-1.8-.73-2.7-1.1-1.45-.54-2.81-1.27-4.2-1.93-1.03-.46-1.98-1.05-2.99-1.54-1.71-.87-3.33-1.91-4.99-2.87-.81-.55-1.71-.95-2.5-1.52-2.78-1.81-5.53-3.66-8.18-5.66-.75-.51-1.46-1.08-2.21-1.58-1.18-1-2.46-1.86-3.64-2.86-1.19-1.05-2.5-1.94-3.67-3.01-.33-.31-.7-.56-1.04-.85-.77-.79-1.69-1.41-2.46-2.19-.8-.62-1.51-1.35-2.26-2.03-.43-.47-.98-.81-1.44-1.26-.52-.5-.99-1.06-1.57-1.5-.7-.5-1.22-1.2-1.89-1.73V16.41c.34-.14.66-.34.92-.6.55-.53,1.26-.84,1.84-1.33.71-.57,1.52-1,2.26-1.54,1-.54,1.91-1.24,2.93-1.75.82-.5,1.68-.95,2.55-1.36,1.59-.88,3.24-1.62,4.92-2.31,1.16-.62,2.42-1.01,3.64-1.5.79-.36,1.64-.54,2.44-.85,2.19-.7,4.38-1.42,6.62-1.93.73-.16,1.43-.49,2.19-.42-.04-.04-.08-.09-.12-.13.81-.07,1.58-.32,2.38-.44,1.51-.38,3.05-.57,4.58-.8.91-.18,1.84-.19,2.74-.42,1.06-.25,2.17-.08,3.23-.29.77-.04,1.53-.17,2.31-.13"/>
    <path class="cls-42" d="m24.53,7.47c9.85-3.15,20.26-4.45,30.58-4.1,9.5.36,19.01,2.15,27.83,5.76,5.81,2.39,11.31,5.62,16.02,9.8.11.1.23.21.21.38v77.16c.03.23-.13.4-.28.55-3.41,3.29-6.98,6.43-10.63,9.45-7.13,5.85-14.65,11.29-22.76,15.71-4.46,2.42-9.12,4.51-14,5.92-.21.06-.44.08-.65.02-5.64-1.61-10.96-4.16-16.04-7.07-6.09-3.51-11.85-7.57-17.39-11.89-4.82-3.8-9.48-7.8-13.93-12.02-.19-.19-.46-.36-.4-.67V25.68c0-2.35-.02-4.7.02-7.04,6.36-5.03,13.72-8.68,21.43-11.16"/>
    <path class="cls-37" d="m38.73,7.83c2.72-.34,5.44-.69,8.18-.72,2.41-.03,4.81-.03,7.22,0,1.89-.01,3.76.22,5.64.35,10.78,1.15,21.45,4.33,30.75,9.98,1.88,1.11,3.64,2.39,5.39,3.68.18.11.19.32.19.5-.01,5.59,0,11.19,0,16.78-.5-.23-.92-.59-1.35-.92-7.86-5.6-16.89-9.52-26.31-11.64-8.37-1.89-17.05-2.4-25.59-1.54-12.81,1.28-25.35,5.68-35.95,13.04-.36.26-.71.54-1.12.72-.02-.25-.04-.5-.04-.75.01-5.14,0-10.29,0-15.43,0-.48-.05-.96.05-1.43.37-.42.89-.67,1.34-.99,9.43-6.3,20.41-10.04,31.6-11.62"/>
    <path class="cls-8" d="m46.59,9.21c.78-.23,1.68-.03,2.21.6.68.74.69,1.81.65,2.75,0,.84-.38,1.72-1.1,2.18-.48.32-1.09.28-1.63.2-.8-.25-1.32-1.02-1.51-1.8-.23-.94-.27-1.98.15-2.86.24-.51.69-.92,1.24-1.06"/>
    <path class="cls-48" d="m52.11,9.17c.75,0,1.5-.01,2.25.04.64.07,1.14.6,1.33,1.19.34,1,.27,2.1-.04,3.1-.21.67-.76,1.33-1.51,1.36-.68.02-1.37,0-2.05-.01,0-1.89.04-3.78.02-5.68"/>
    <path class="cls-52" d="m56.79,9.66c-.02-.16.07-.39.27-.34.22.04.56-.07.68.17-.13,1.85-.29,3.71-.41,5.56-.28.02-.56,0-.84-.04.02-1.79.26-3.57.29-5.36"/>
    <path class="cls-6" d="m58.29,9.45c.31-.01.63,0,.93.09.27,1.38.51,2.76.75,4.14.61-1.26,1.06-2.6,1.64-3.88.32,0,.65.02.97.05-.79,1.83-1.61,3.66-2.42,5.49-.28-.03-.55-.06-.82-.13-.21-1.13-.38-2.27-.62-3.4-.15-.79-.34-1.57-.43-2.37"/>
    <path class="cls-10" d="m40.32,9.78c.52-.09,1.04-.12,1.57-.18.5-.04,1.08-.1,1.49.25.81.64,1.01,1.74,1.03,2.72.03.81-.08,1.73-.7,2.31-.78.58-1.82.36-2.72.57-.18-.91-.24-1.84-.37-2.76-.09-.97-.3-1.93-.3-2.91"/>
    <path class="cls-10" d="m63.06,10.34c.03-.14.04-.44.27-.36.23.02.46.06.69.09-.24,1.87-.55,3.74-.8,5.61-.28.02-.57,0-.84-.06.02-.63.16-1.25.24-1.87.15-1.13.3-2.26.44-3.4"/>
    <path class="cls-11" d="m36.8,10.27c.31-.08.64-.11.97-.11.57,1.3,1.23,2.56,1.8,3.87.21.51.5.99.61,1.53-.29,0-.63.12-.9-.02-.19-.36-.32-.74-.51-1.11-.58.03-1.15.14-1.72.25-.08.44-.12.88-.16,1.33-.29.08-.58.14-.88.15.14-1.98.49-3.94.78-5.91"/>
    <path class="cls-37" d="m46.94,10.15c.36-.05.78-.06,1.06.21.48.42.61,1.1.59,1.71.02.59-.05,1.25-.52,1.66-.31.31-.8.32-1.2.21-.65-.31-.9-1.07-.92-1.74,0-.52-.04-1.1.27-1.55.18-.23.42-.45.72-.49"/>
    <path class="cls-36" d="m53.01,10.18c.59-.02,1.35-.14,1.75.41.38.64.28,1.43.18,2.13-.06.43-.2.91-.62,1.1-.45.09-.92.04-1.38.04.02-1.23.04-2.46.07-3.69"/>
    <path class="cls-8" d="m65.71,10.45c.67-.14,1.46-.05,1.96.45.41.39.48,1,.4,1.53-.3-.01-.6-.04-.87-.15-.06-.31-.1-.7-.44-.83-.36-.12-.97-.18-1.12.27-.1.23.08.46.27.58.51.36,1.13.55,1.57,1,.84.94.27,2.73-1,2.95-.56.09-1.15-.04-1.63-.33-.6-.42-.78-1.22-.71-1.92.28-.02.56,0,.83.08.09.36.14.78.46,1.01.37.24.91.32,1.26,0,.31-.2.37-.73.04-.94-.51-.4-1.19-.56-1.63-1.06-.74-.77-.44-2.29.6-2.64"/>
    <path class="cls-37" d="m41.31,10.66c.56-.07,1.24-.27,1.7.17.42.42.46,1.06.52,1.62,0,.55.07,1.22-.37,1.64-.42.27-.95.24-1.43.27-.17-1.23-.31-2.46-.42-3.69"/>
    <path class="cls-3" d="m30.77,11.49c.76-.22,1.53-.38,2.31-.52.35-.06.75-.07,1.05.16.92.67,1.01,2.33-.06,2.91.61.49,1.04,1.15,1.51,1.78.1.12.15.28.2.42-.29.06-.58.11-.87.17-.54-.58-.93-1.3-1.56-1.8-.26-.24-.63-.13-.95-.12.05.81.4,1.57.45,2.37-.28.05-.55.08-.83.09-.4-1.82-.88-3.63-1.25-5.46"/>
    <path class="cls-48" d="m68.89,13.27c.18-.74.25-1.52.52-2.24.28.06.55.13.83.2-.26,1.44-.63,2.85-.93,4.28-.09.44-.17.88-.34,1.3-.25-.06-.5-.13-.75-.19.13-1.13.45-2.23.66-3.34"/>
    <path class="cls-26" d="m37.44,11.7c.33.56.59,1.16.86,1.75-.36.12-.74.16-1.12.18.06-.65.14-1.3.26-1.94"/>
    <path class="cls-6" d="m72.17,11.86c.89-.25,1.95.12,2.44.92.4.64.36,1.44.24,2.15-.21.91-.6,1.85-1.39,2.4-.94.65-2.38.26-2.89-.75-.43-.84-.31-1.84-.07-2.73.24-.85.78-1.71,1.66-1.99"/>
    <path class="cls-36" d="m31.96,12.21c.48-.13.97-.23,1.46-.27.55.09.66.92.27,1.23-.49.21-1.02.31-1.55.36-.05-.43-.32-.91-.18-1.32"/>
    <path class="cls-10" d="m27.72,12.14c.57-.11,1.2-.07,1.69.29.79.56,1.14,1.54,1.29,2.46.13.65.08,1.35-.22,1.95-.45.91-1.67,1.32-2.59.92-.52-.22-.91-.66-1.2-1.14-.49-.9-.73-1.96-.52-2.97.16-.75.8-1.35,1.56-1.51"/>
    <path class="cls-37" d="m72.42,12.83c.47-.18,1.04.04,1.35.43.34.42.29,1.01.21,1.51-.15.66-.42,1.4-1.05,1.75-.63.36-1.48-.06-1.66-.74-.18-.73,0-1.51.32-2.18.17-.35.47-.64.84-.77"/>
    <path class="cls-9" d="m76.35,12.84c.31.07.78.04.94.37.25,1.25.37,2.53.58,3.78.26-.35.3-.79.46-1.19.25-.7.45-1.42.7-2.12.27.05.54.12.81.18-.01.19-.02.39-.08.58-.57,1.61-1.12,3.23-1.67,4.84-.31-.03-.61-.12-.89-.26-.19-1.29-.34-2.6-.55-3.89-.1.18-.19.36-.24.56-.26.94-.55,1.86-.85,2.79-.29-.03-.56-.13-.82-.26.52-1.8,1.06-3.6,1.61-5.4"/>
    <path class="cls-37" d="m27.86,13.13c.54-.17,1.14.03,1.45.49.43.72.66,1.59.48,2.42-.17.69-1.04,1.12-1.67.74-.74-.43-1.01-1.34-1.11-2.14-.1-.62.23-1.32.85-1.52"/>
    <path class="cls-8" d="m21.8,14.07c.26-.11.54-.2.82-.27.53,1.46.99,2.94,1.51,4.4.78-.13,1.49-.52,2.28-.61.08.29.16.57.24.86-.99.37-1.99.7-3.01.98-.44-1.11-.79-2.26-1.2-3.39-.2-.67-.52-1.3-.64-1.98"/>
    <path class="cls-3" d="m18.9,15.04c.7-.24,1.52-.06,2.05.45.52.44.81,1.07,1.02,1.7.25.74.38,1.59.04,2.33-.38.93-1.51,1.4-2.46,1.13-.68-.22-1.21-.76-1.55-1.37-.35-.64-.6-1.34-.65-2.07.01-.56.14-1.17.54-1.58.29-.27.63-.47,1-.6"/>
    <path class="cls-10" d="m83.22,15.59c1.14-.43,2.58.35,2.81,1.56.21,1.12-.25,2.25-.91,3.14-.51.65-1.35,1.17-2.2.95-.74-.14-1.41-.69-1.6-1.43-.27-1.06.07-2.16.61-3.08.29-.51.75-.93,1.29-1.15"/>
    <path class="cls-37" d="m19.04,16.05c.59-.31,1.35-.01,1.67.55.43.7.73,1.56.51,2.37-.23.6-.98.96-1.58.67-.75-.35-1.09-1.2-1.29-1.95-.17-.62.06-1.38.69-1.64"/>
    <path class="cls-48" d="m49.56,16.5c.24-.16.56-.05.84-.08,0,1.9.03,3.8.03,5.71-.26.02-.52,0-.77-.04.03-1.87-.09-3.73-.09-5.59"/>
    <path class="cls-6" d="m52.59,16.44c.59-.11,1.29-.13,1.77.3.68.55.89,1.47.85,2.31.03,1.05-.19,2.28-1.12,2.91-.39.32-.93.27-1.4.22-.66-.16-1.12-.75-1.31-1.38-.3-.92-.31-1.94-.06-2.87.21-.63.6-1.3,1.27-1.49"/>
    <path class="cls-48" d="m45.62,16.57c1.15,0,2.28-.15,3.43-.12.02.32.03.64.02.97-.4.02-.81-.01-1.2.06l-.05.1c-.02,1.54.16,3.07.14,4.61h-.74c-.14-1.56-.11-3.12-.28-4.67-.43.02-.87.04-1.31.02-.02-.32-.03-.65,0-.97"/>
    <path class="cls-37" d="m83.57,16.51c.75-.23,1.6.41,1.61,1.19,0,.73-.34,1.42-.75,2-.35.5-1.07.7-1.63.44-.59-.32-.79-1.08-.6-1.7.21-.77.56-1.66,1.38-1.94"/>
    <path class="cls-10" d="m44.11,16.68c.26,0,.52,0,.78-.01.13,1.89.34,3.78.4,5.68-.27.03-.54.06-.82.06-.61-1.09-1.13-2.24-1.86-3.26.05,1.14.24,2.26.32,3.39-.25.05-.51.09-.77.1-.19-1.89-.51-3.77-.63-5.67.28-.03.56-.05.84-.05.7,1.09,1.29,2.25,1.93,3.38,0-1.21-.25-2.41-.21-3.61"/>
    <path class="cls-48" d="m56.06,16.66c.31-.12.64-.05.96,0,.47,1.24.89,2.49,1.32,3.74.09-1.02.23-2.04.28-3.06,0-.2.06-.39.13-.57.24.03.49.05.73.08-.1,1.9-.4,3.78-.55,5.67-.28,0-.56-.02-.84-.1-.43-1.2-.77-2.43-1.24-3.61-.21,1.12-.15,2.29-.3,3.42-.2.17-.51.02-.76.05.03-1.88.29-3.75.26-5.63"/>
    <path class="cls-3" d="m13.04,18.24c.28-.93,1.31-1.52,2.26-1.34.58.06.98.53,1.34.94-.22.2-.46.37-.72.54-.27-.2-.52-.49-.88-.5-.6-.09-1.21.45-1.19,1.06-.05.75.34,1.44.76,2.03.34.48,1.04.82,1.57.42.53-.31.41-.99.41-1.51.3.05.76-.16.94.16.07.54.07,1.14-.23,1.62-.37.57-1.08.92-1.76.86-.86-.11-1.57-.74-1.98-1.48-.47-.83-.84-1.84-.53-2.8"/>
    <path class="cls-10" d="m37.48,17.57c1.04-.2,2.09-.41,3.15-.44.05.3.09.61.11.91-.75.15-1.51.2-2.26.35,0,.38.05.76.12,1.14.71,0,1.4-.21,2.11-.2,0,.3.17.64.03.92-.63.16-1.28.18-1.91.3,0,.52.11,1.03.19,1.54.77-.09,1.53-.29,2.31-.3.02.33.04.66.03.99-.99.06-1.96.26-2.94.41-.25-1-.35-2.03-.55-3.04-.12-.86-.32-1.71-.4-2.57"/>
    <path class="cls-12" d="m86.98,18.45c.22-.48.41-.99.69-1.44.99.44,1.96.91,2.94,1.38-.07.32-.24.61-.4.89-.73-.27-1.38-.72-2.13-.96-.2.37-.44.73-.49,1.16.57.27,1.14.51,1.69.82-.11.27-.14.66-.39.81-.63-.12-1.15-.58-1.79-.72-.36.71-.66,1.45-1.01,2.16-.29-.08-.55-.21-.78-.4.55-1.23,1.11-2.46,1.67-3.69"/>
    <path class="cls-37" d="m52.84,17.41c.43-.11.97-.05,1.23.35.35.52.39,1.18.34,1.79-.06.53-.2,1.11-.62,1.48-.27.25-.7.26-1.03.13-.69-.38-.8-1.27-.78-1.99,0-.66.19-1.49.87-1.77"/>
    <path class="cls-12" d="m62.31,17.91c.41-.88,1.83-.81,2.27,0,.27.48.17,1.16-.25,1.53-.2.18-.42.33-.64.49.14.3.13.79.45.94.1-.14.19-.29.29-.43.24.12.47.25.68.41-.16.37-.44.7-.52,1.1.13.24.31.45.48.67-.18.28-.39.55-.66.75-.19-.2-.37-.42-.54-.64-.42.15-.82.49-1.3.36-.58-.07-1.09-.55-1.17-1.13-.06-.49-.06-1.02.18-1.46.19-.4.54-.67.87-.95-.17-.52-.45-1.11-.15-1.64"/>
    <path class="cls-6" d="m35.97,17.81c.29-.06.57-.12.86-.18-.03,1.21-.24,2.42-.3,3.63-.1.76-.08,1.53-.2,2.29-.25.08-.51.12-.77.13-.58-1.17-1.16-2.34-1.76-3.5-.28-.58-.63-1.12-.86-1.72.28-.05.56-.21.84-.15.7,1.17,1.2,2.46,1.88,3.64.13-.55.13-1.11.16-1.67.03-.82.13-1.63.16-2.46"/>
    <path class="cls-27" d="m63.05,18.22c.2-.38.87-.21.83.23.03.36-.32.55-.57.73-.14-.3-.41-.62-.26-.96"/>
    <path class="cls-7" d="m30.67,18.99c.62-.15,1.24-.34,1.88-.41.07.29.14.57.21.86-.72.29-1.51.37-2.24.62.05.4.16.78.31,1.15.68-.16,1.34-.42,2.04-.42.07.29.13.59.17.88-.66.17-1.34.3-1.99.54.13.48.23.97.4,1.45.75-.17,1.49-.41,2.26-.53.06.28.14.56.17.84-.09.21-.37.17-.55.25-.81.16-1.6.46-2.42.57-.51-1.8-.97-3.61-1.5-5.4.39-.21.83-.27,1.25-.39"/>
    <path class="cls-12" d="m68.87,18.74c.75-.45,1.83-.18,2.27.58.28.41.23.93.24,1.41h-.77c-.08-.34-.1-.73-.37-.98-.31-.3-.83-.34-1.17-.07-.49.39-.68,1.02-.79,1.62-.08.48-.2,1.02.05,1.47.17.34.59.61.97.48.42-.15.62-.58.88-.91.2.14.41.27.58.46.06.15-.05.3-.12.43-.23.36-.52.71-.9.92-.71.36-1.65.04-2.02-.66-.41-.65-.36-1.44-.29-2.17.17-.97.53-2.04,1.44-2.55"/>
    <path class="cls-12" d="m73.41,19.74c.57-.11,1.19-.05,1.67.3.54.38.8,1.07.8,1.71,0,.7-.21,1.39-.48,2.03-.29.67-.77,1.32-1.47,1.59-.75.3-1.69-.03-2.11-.73-.43-.72-.4-1.61-.2-2.39.22-1.02.73-2.15,1.79-2.52"/>
    <path class="cls-10" d="m25.17,20.64c.82-.28,1.64-.65,2.51-.71.49-.06.88.32,1.09.72.25.51.4,1.11.2,1.66-.11.24-.29.44-.44.65.7.57,1.25,1.3,1.81,2-.26.12-.54.21-.82.29-.59-.58-1.04-1.31-1.75-1.76-.25-.17-.53-.01-.78.07.18.78.58,1.49.67,2.28-.24.07-.49.13-.74.15-.55-1.8-1.23-3.55-1.74-5.36"/>
    <path class="cls-35" d="m62.31,21.91c-.32-.54-.04-1.3.5-1.58.21.51.47,1,.58,1.54-.32.19-.78.37-1.07.04"/>
    <path class="cls-37" d="m73.54,20.72c.64-.24,1.38.24,1.46.9.07.73-.17,1.47-.51,2.11-.29.52-.96.99-1.55.65-.63-.33-.7-1.15-.56-1.77.16-.72.41-1.58,1.16-1.9"/>
    <path class="cls-7" d="m77.21,20.78c.29.02.57.1.84.2.2,1.31.18,2.64.36,3.94.46-1.08.81-2.2,1.25-3.29.28.03.54.13.8.25-.39,1.16-.88,2.29-1.31,3.44-.26.62-.43,1.28-.76,1.88-.26-.09-.51-.18-.77-.28-.09-1.25-.11-2.51-.27-3.75-.53,1.01-.74,2.17-1.21,3.2-.24-.06-.47-.14-.69-.23.08-.48.26-.93.42-1.39.45-1.32.9-2.65,1.34-3.97"/>
    <path class="cls-30" d="m26.27,21.35c.49-.22,1.03-.49,1.59-.38.34.24.53.85.16,1.14-.41.26-.89.38-1.37.48-.13-.41-.26-.82-.38-1.23"/>
    <path class="cls-3" d="m22.66,21.5c.43-.16.92-.33,1.38-.14.57.3.88.92,1.01,1.53.08.51.07,1.13-.36,1.5-.4.32-.92.44-1.38.66.2.7.58,1.34.7,2.06-.23.1-.45.18-.69.25-.7-1.75-1.38-3.51-2.07-5.26.44-.26.94-.4,1.41-.59"/>
    <path class="cls-4" d="m80.77,23.08c.13-.29.15-.73.44-.89,1.07.4,2.11.86,3.16,1.32-.05.32-.2.61-.35.89-.44-.1-.82-.39-1.28-.43-.6,1.42-1.19,2.85-1.82,4.26-.24-.08-.47-.17-.69-.27.47-1.49,1.22-2.89,1.74-4.37-.39-.19-.79-.35-1.19-.5"/>
    <path class="cls-29" d="m22.43,22.65c.39-.14.78-.36,1.21-.33.48.13.71.73.51,1.17-.29.36-.77.5-1.21.58-.2-.46-.42-.92-.5-1.41"/>
    <path class="cls-12" d="m18.05,23.37c.24-.12.5-.21.76-.26.13.27.24.55.33.84-.67.37-1.39.63-2.08.95.06.4.28.74.47,1.09.68-.22,1.28-.68,2-.79.11.29.24.57.3.88-.61.25-1.24.5-1.82.82.12.5.36.95.61,1.39.73-.27,1.4-.71,2.16-.9.12.28.24.57.34.86-.94.45-1.89.88-2.85,1.27-.81-1.7-1.64-3.39-2.43-5.1.71-.4,1.47-.7,2.21-1.05"/>
    <path class="cls-12" d="m84.92,23.84c.51.09.96.39,1.43.59.46.23,1.01.44,1.26.93.21.76-.1,1.61-.69,2.11-.28.25-.68.27-1.03.33.09.9.02,1.8-.02,2.7-.29-.07-.56-.21-.83-.35-.03-.79.1-1.6-.06-2.39-.05-.31-.37-.44-.61-.6-.44.66-.66,1.45-1.09,2.12-.23-.1-.46-.2-.68-.32.73-1.73,1.56-3.42,2.32-5.14"/>
    <path class="cls-28" d="m85.3,25.07c.44.14.87.34,1.25.61.52.38-.05,1.37-.64,1.13-.39-.13-.75-.34-1.13-.5.08-.45.33-.84.52-1.24"/>
    <path class="cls-12" d="m12.19,26.24c.75-.32,1.42-.9,2.26-.97,1.21.21,1.9,1.91,1.09,2.88.8.44,1.52,1.03,2.15,1.68-.25.14-.49.31-.78.37-.72-.42-1.28-1.12-2.1-1.39-.23,0-.59.03-.66.3.29.7.78,1.31,1.02,2.04l-.63.33c-.35-.45-.59-.98-.87-1.47-.6-1.13-1.25-2.23-1.83-3.37-.15-.23.2-.3.33-.39"/>
    <path class="cls-23" d="m9.04,37.66c12.1-7.98,26.58-12.16,41.05-12.29,1.47,0,2.94-.04,4.41.09,1.47,0,2.94.18,4.41.31,10.74,1.1,21.28,4.44,30.54,10.01,2.29,1.35,4.46,2.9,6.6,4.47.05,6.28,0,12.57.02,18.85v34.54c0,.76-.21,1.55-.79,2.09-.98.94-2.04,1.8-3.06,2.7-2.15,1.89-4.35,3.74-6.5,5.63-2.05,1.76-4.22,3.37-6.33,5.05-2.23,1.61-4.41,3.27-6.69,4.82-.5.31-.97.66-1.45,1-5.48,3.57-11.1,7.01-17.24,9.34-1,.36-2,.72-3.03,1.01-.42.13-.83-.04-1.22-.17-6.1-1.86-11.81-4.83-17.23-8.16-4.38-2.73-8.6-5.71-12.66-8.9-1.28-.95-2.48-2.02-3.75-2.99-.62-.48-1.14-1.06-1.74-1.56-2.82-2.44-5.63-4.9-8.29-7.52-.15-.3-.24-.63-.25-.97v-52.06c0-.99.02-1.99-.03-2.98v-.12c1.1-.69,2.13-1.47,3.21-2.18"/>
    <path class="cls-36" d="m13.08,26.91c.48-.26.98-.69,1.55-.57.31.22.47.61.37.98-.38.37-.88.6-1.37.79-.18-.39-.54-.78-.54-1.2"/>
    <path class="cls-12" d="m89.22,26.48c1.1-.44,2.49.44,2.56,1.63.1,1-.41,1.95-.99,2.73-.48.61-1.17,1.22-2,1.17-.65.02-1.28-.38-1.59-.94-.37-.75-.22-1.64.09-2.38.39-.9.98-1.82,1.93-2.2"/>
    <path class="cls-4" d="m10.19,27.33c.24-.13.49-.26.76-.3.89,1.65,1.85,3.26,2.73,4.9-.19.12-.37.27-.59.33-.18.04-.24-.17-.31-.28-.65-1.17-1.35-2.32-2.01-3.49-.21-.38-.5-.73-.58-1.17"/>
    <path class="cls-37" d="m89.44,27.41c.73-.28,1.57.44,1.46,1.2-.11.77-.52,1.48-1.07,2.02-.39.41-1.09.57-1.56.2-.5-.39-.5-1.13-.27-1.67.28-.7.68-1.48,1.44-1.76"/>
    <path class="cls-12" d="m8.1,28.62c.5-.28.94-.66,1.49-.85.16.28.34.55.42.87-.58.34-1.17.65-1.73,1.03,0,.04-.03.11-.04.14.17.35.4.66.61.98.54-.28,1.03-.63,1.56-.91.2.25.37.52.5.82-.45.36-.98.6-1.47.91.22.82.97,1.39,1.18,2.21-.24.09-.6.49-.78.14-.98-1.49-1.92-3.02-2.91-4.51.3-.38.77-.55,1.16-.82"/>
    <path class="cls-4" d="m93.26,28.25c.31.02.56.23.77.45-.57.97-1.2,1.9-1.78,2.87-.21.38-.52.72-.63,1.15.59.38,1.23.71,1.78,1.16-.15.28-.31.56-.54.79-.82-.52-1.64-1.04-2.47-1.56.89-1.65,1.95-3.21,2.87-4.85"/>
    <g class="cls-58">
      <g class="cls-1">
        <g>
          <path class="cls-43" d="m47.28,29.96c.92-.25,1.87-.31,2.81-.39,1.44.06,2.89.29,4.25.79,2.25.83,4.32,2.06,6.35,3.33,1.08.64,2.09,1.4,3.26,1.88,2.48,1.08,5.17,1.62,7.85,1.91,2.24.13,4.47.31,6.7.44-.91,1.2-1.93,2.31-2.89,3.47-1.82,2.14-3.64,4.28-5.45,6.42-1.12,1.35-2.31,2.65-3.38,4.04.71.66,1.4,1.35,2.08,2.05,1.17-.87,2.24-1.88,3.37-2.8,3.57-2.99,7.08-6.04,10.66-9.01.14,2.32.3,4.65.49,6.97.22,2.2.67,4.39,1.41,6.48.39,1.09.9,2.14,1.55,3.1,1.43,2.29,2.91,4.58,3.92,7.1.34.86.62,1.76.77,2.68.15,1.01.3,2.05.13,3.07-.14,1.88-.8,3.68-1.64,5.35-.89,1.82-2,3.53-3.07,5.26-1.75,2.61-2.51,5.73-2.96,8.8-.32,2.62-.36,5.27-.61,7.9-.94-.67-1.76-1.48-2.65-2.2-2.95-2.52-5.92-5.02-8.87-7.55-.72-.57-1.38-1.21-2.11-1.76-.69.81-1.47,1.52-2.19,2.31.36.55.82,1.02,1.24,1.52,3.5,4.14,7,8.27,10.51,12.4.08.11.15.23.21.35-.9.1-1.8.09-2.69.2-2.16.15-4.34.21-6.48.61-1.81.32-3.61.82-5.3,1.54-1.16.49-2.19,1.24-3.26,1.89-1.82,1.13-3.66,2.24-5.64,3.06-1.55.66-3.23.99-4.92,1.06-1.49-.05-2.98-.31-4.38-.85-3.06-1.14-5.74-3.05-8.53-4.7-2.26-1.18-4.77-1.78-7.27-2.16-1.91-.28-3.85-.31-5.77-.48-.79-.1-1.6-.02-2.38-.2,1.38-1.7,2.83-3.34,4.24-5.02,2.45-2.91,4.94-5.79,7.37-8.72-.78-.69-1.49-1.45-2.25-2.15-4.24,3.52-13.76,11.69-13.76,11.69-.05-1.37-.31-4.61-.45-6.86-.27-2.47-.74-4.95-1.67-7.26-.66-1.75-1.82-3.23-2.75-4.84-1.43-2.41-2.87-4.91-3.3-7.71-.1-.86-.16-.99-.16-1.87,0-3.56,1.88-6.92,3.52-9.64.89-1.52,2.1-3.18,2.76-4.84.69-1.75,1.47-4.65,1.66-7.46.14-2.12.21-2.94.4-6.62,0,0,11.35,9.73,13.6,11.65.73.62,1.12-1.47,1.83-2.11.21-.13.08-.35-.04-.48-3.24-3.79-6.44-7.61-9.67-11.4-.61-.77-1.3-1.47-1.88-2.26,1.22-.12,2.46-.14,3.68-.26,1.61-.16,3.24-.13,4.84-.43,2.88-.49,5.8-1.23,8.24-2.91,2.77-1.7,5.53-3.56,8.72-4.38"/>
          <path class="cls-54" d="m50.71,115.06h-.1c-1.9-.07-3.69-.42-5.31-1.05-2.53-.94-4.77-2.34-6.94-3.68-.64-.4-1.29-.8-1.94-1.19-1.65-.85-3.66-1.43-6.32-1.84-1.11-.16-2.28-.23-3.51-.31-.69-.04-1.39-.09-2.08-.14h-.13c-.24-.05-.48-.05-.72-.06-.54-.02-1.2-.04-1.93-.21l-4.43-1.02,2.87-3.53c.55-.68,1.11-1.34,1.67-2.01-1.22,1.04-2.01,1.72-2.03,1.74l-4.45,3.82-.22-5.86c-.03-.79-.13-2.24-.24-3.75-.07-1.03-.15-2.08-.2-2.98-.29-2.61-.76-4.66-1.48-6.45-.37-.98-.95-1.89-1.57-2.86-.34-.54-.69-1.07-1.01-1.62-1.38-2.34-3.13-5.28-3.65-8.7l-.07-.57c-.07-.54-.12-.91-.12-1.72,0-4.24,2.03-7.95,3.93-11.1.26-.44.57-.93.88-1.43.64-1.01,1.3-2.06,1.66-2.98.61-1.55,1.31-4.2,1.47-6.61l.05-.79c.11-1.58.18-2.62.34-5.79l.29-5.76,4.37,3.75s.49.42,1.28,1.09c-.12-.14-.24-.28-.36-.42-.4-.45-.81-.92-1.21-1.47l-2.91-3.98,4.91-.5c.67-.07,1.34-.11,2.01-.14.56-.03,1.12-.06,1.68-.11.62-.06,1.24-.1,1.86-.13.97-.05,1.89-.11,2.74-.27,2.38-.41,5.05-1.01,7.15-2.46l.12-.08.88-.54c2.63-1.63,5.35-3.32,8.62-4.17,1.05-.29,2.11-.37,3.04-.45l.43-.04h.18c1.87.09,3.59.42,5.1.97,2.58.95,4.9,2.35,6.88,3.59.29.17.63.39.98.61.66.42,1.28.81,1.87,1.06,1.96.85,4.17,1.38,7,1.7,1.1.07,2.21.14,3.31.22,1.11.08,2.21.15,3.32.22l5.3.31-3.21,4.23c-.44.57-.89,1.12-1.34,1.65.55-.46,1.1-.92,1.65-1.37l4.28-3.54.34,5.55c.13,2.1.29,4.54.49,6.91.21,2.06.64,4.01,1.26,5.76.33.91.74,1.75,1.24,2.49l.42.67c1.36,2.17,2.76,4.41,3.78,6.94.46,1.19.77,2.25.94,3.27.16,1.13.36,2.45.15,3.86-.17,1.98-.8,4.04-1.93,6.29-.81,1.66-1.79,3.22-2.73,4.73l-.46.75c-1.29,1.92-2.06,4.28-2.57,7.73-.16,1.34-.25,2.77-.34,4.27-.07,1.16-.14,2.33-.25,3.49l-.46,4.87-3.99-2.83c-.68-.48-1.26-.99-1.82-1.48-.26-.23-.51-.45-.78-.67.77.91,1.55,1.82,2.32,2.73l.1.13c.22.29.36.56.45.73l1.94,3.67-4.12.47c-.49.06-.98.08-1.47.11-.4.02-.8.04-1.2.09h-.15c-.48.05-.96.08-1.44.11-1.65.1-3.22.2-4.72.48-1.75.31-3.33.77-4.71,1.36-.64.27-1.28.68-1.96,1.11-.32.2-.63.4-.96.6-2.02,1.25-3.9,2.38-6.02,3.25-1.77.76-3.77,1.19-5.89,1.27h-.1Zm-22.6-13.63c.92.06,1.87.15,2.83.29,3.35.51,5.94,1.29,8.17,2.45l.13.07c.71.42,1.41.85,2.11,1.29,2.02,1.25,3.93,2.44,5.97,3.2,1.03.4,2.16.62,3.39.67,1.39-.06,2.67-.34,3.81-.83,1.76-.73,3.42-1.72,5.26-2.86.31-.19.59-.36.86-.54.81-.52,1.74-1.11,2.8-1.55,1.75-.75,3.75-1.33,5.9-1.72,1.33-.25,2.66-.38,3.97-.47-2.4-2.82-4.79-5.65-7.18-8.48-.11-.13-.22-.26-.33-.38-.35-.4-.75-.86-1.12-1.42l-1.2-1.84,1.48-1.62c.33-.36.67-.71,1.02-1.06.38-.39.76-.77,1.12-1.18l1.73-2.01,2.12,1.59c.47.35.92.74,1.36,1.12.27.23.54.47.82.69,1.66,1.42,3.25,2.77,4.83,4.11.83.7,1.65,1.4,2.48,2.1.06-.83.14-1.67.24-2.51.44-2.98,1.21-6.74,3.42-10.04l.42-.68c.91-1.45,1.76-2.83,2.46-4.26.83-1.65,1.27-3.05,1.36-4.31l.03-.25c.1-.59-.02-1.37-.14-2.2-.1-.57-.3-1.26-.61-2.05-.82-2.04-2.03-3.98-3.31-6.03l-.37-.6c-.7-1.05-1.32-2.29-1.81-3.64-.78-2.19-1.31-4.59-1.57-7.15l-.12-1.5c-.56.48-1.13.96-1.69,1.44-1.57,1.33-3.13,2.67-4.71,3.99-.42.34-.81.68-1.19,1.02-.73.63-1.48,1.28-2.3,1.89l-2,1.48-1.73-1.79c-.72-.75-1.37-1.39-1.97-1.95l-1.89-1.76,1.59-2.04c.7-.91,1.44-1.76,2.15-2.59.43-.5.86-1,1.28-1.51,1.12-1.32,2.22-2.62,3.32-3.91l1.46-1.72c-.37-.02-.75-.05-1.12-.07h-.14c-3.4-.38-6.23-1.07-8.68-2.14-1-.42-1.9-.99-2.69-1.49-.29-.19-.59-.37-.88-.55-1.79-1.12-3.81-2.34-5.88-3.11-.92-.34-2.01-.54-3.23-.61h-.06c-.75.07-1.47.12-2.05.28-2.47.64-4.71,2.03-7.08,3.5l-.84.52c-3.01,2.06-6.55,2.86-9.31,3.33-1.1.21-2.19.28-3.25.34.93,1.09,1.85,2.18,2.77,3.28,1.72,2.04,3.45,4.08,5.18,6.1.64.69.94,1.64.8,2.59-.1.66-.41,1.26-.88,1.72-.07.12-.14.27-.2.4-.43.87-1.31,2.67-3.4,2.67h0c-.77,0-1.49-.27-2.1-.79-1.32-1.13-5.81-4.97-9.27-7.94,0,.05,0,.11-.01.16l-.05.79c-.22,3.22-1.1,6.4-1.85,8.31-.56,1.41-1.4,2.74-2.14,3.92-.28.44-.56.88-.81,1.31-1.53,2.53-3.13,5.42-3.13,8.21,0,.47.01.57.07.96l.07.56c.34,2.25,1.72,4.57,2.93,6.61.29.5.59.96.88,1.42.72,1.12,1.53,2.39,2.08,3.86.9,2.23,1.49,4.77,1.84,7.95v.13c.03.38.06.79.09,1.21,3.1-2.64,7.13-6.08,9.5-8.04l1.91-1.59,1.82,1.69c.34.32.67.64,1,.96.39.39.79.78,1.2,1.14l2.05,1.81-1.74,2.11c-1.49,1.8-3,3.57-4.51,5.35-.96,1.13-1.92,2.26-2.88,3.39-.22.26-.45.53-.67.79h.01Z"/>
        </g>
      </g>
    </g>
    <path class="cls-37" d="m45.23,32.42c1.62-.81,3.43-1.12,5.23-1.17,1.14.06,2.29.19,3.36.63,2.31.83,4.38,2.18,6.47,3.44,1.04.75,2.19,1.35,3.36,1.88,1.34.51,2.68,1.05,4.11,1.28,1.31.34,2.65.53,3.99.61,1.1.16,2.23.06,3.32.31-.22.58-.71.99-1.08,1.48-.52.66-1.13,1.24-1.65,1.9-.66.81-1.33,1.6-2.04,2.37-.96,1.23-2.03,2.39-3.02,3.59-.62.65-1.11,1.41-1.77,2.03-.56-.31-1.04-.75-1.59-1.09-1.53-.99-3.15-1.84-4.85-2.5-1.46-.48-2.9-1.03-4.43-1.21-1.86-.4-3.77-.42-5.66-.37-2.6.09-5.18.65-7.6,1.6-2.2.79-4.24,1.96-6.12,3.35-.15.11-.32.2-.48.29-.77-.84-1.45-1.77-2.24-2.6-.86-1.06-1.8-2.05-2.62-3.14-.57-.5-.95-1.17-1.5-1.7-.54-.53-.94-1.17-1.45-1.73-.53-.57-.93-1.26-1.53-1.78-.18-.13-.21-.35-.23-.55.94-.06,1.87-.13,2.81-.13,1.02-.08,2.02-.3,3.03-.38,1.16-.23,2.3-.56,3.45-.82.85-.24,1.65-.61,2.47-.94,1.55-.7,2.92-1.73,4.38-2.58,1.26-.74,2.5-1.51,3.86-2.05"/>
    <path class="cls-12" d="m48.94,38.04c.41-.04.82-.05,1.22.04.56,1.1.98,2.26,1.52,3.37.62-1.07,1.18-2.16,1.8-3.23.42-.02.84,0,1.26.1-.91,1.46-1.89,2.89-2.64,4.44-.35,0-.72.09-1.05-.05-.46-1.12-.94-2.22-1.47-3.3-.21-.46-.52-.87-.64-1.37"/>
    <path class="cls-10" d="m44.97,38.42c.84-.12,1.7-.29,2.55-.17.71.11,1.23.91.96,1.6-.17.52-.71.75-1.19.92.78.46,1.23,1.26,1.77,1.95-.35.12-.71.13-1.08.14-.5-.5-.91-1.08-1.47-1.51-.38-.34-.95-.27-1.4-.15.11.65.27,1.29.28,1.96-.31.06-.63.1-.95.12-.36-1.5-.57-3.04-.92-4.54.45-.21.95-.23,1.44-.32"/>
    <path class="cls-48" d="m55.18,38.43c.38,0,.76.03,1.13.11-.02.68-.19,1.34-.31,2.01-.18.89-.28,1.8-.51,2.67-.32-.05-.64-.1-.95-.16.16-1.55.45-3.09.64-4.64"/>
    <path class="cls-12" d="m37.99,40.22c1.41-.47,2.83-.95,4.29-1.27.13.24.17.51.19.77-1.04.27-2.08.57-3.1.89.08.32.17.64.27.95.97-.19,1.89-.61,2.87-.78.07.24.13.47.2.71-.86.37-1.81.49-2.68.85-.1.39.2.81.3,1.2.99-.21,1.93-.59,2.92-.78.12.24.18.51.21.77-.77.22-1.56.39-2.32.64-.52.15-1.01.41-1.55.47-.43-1.13-.84-2.27-1.28-3.39-.13-.34-.28-.67-.33-1.03"/>
    <path class="cls-31" d="m44.88,39.24c.71-.06,1.41-.24,2.13-.17.44.06.56.74.13.91-.68.25-1.42.28-2.14.36-.08-.36-.15-.73-.12-1.1"/>
    <path class="cls-3" d="m58.16,39.39c.91-.37,1.94-.15,2.78.29.68.35,1.24,1.03,1.19,1.83-.37-.04-.73-.11-1.08-.21-.2-1.01-1.44-1.5-2.34-1.15-.63.29-.81,1.05-.85,1.67-.1,1.17,1.57,1.89,2.41,1.12.39-.44.81.16,1.16.36-.31.37-.72.7-1.21.78-1,.15-2.11-.14-2.81-.9-1.11-1.07-.7-3.24.74-3.81"/>
    <path class="cls-34" d="m5.65,40.36c.01-.19-.03-.44.19-.52v.12c-.13.66-.09,1.33-.09,2v42.99c0,3.56.02,7.12-.02,10.68-.06-.12-.08-.25-.08-.39v-54.88"/>
    <path class="cls-21" d="m5.75,41.96c0-.67-.04-1.34.08-2,.05.99.03,1.99.03,2.98v52.06c0,.34.1.67.25.97-.12-.12-.25-.23-.38-.34.04-3.56,0-7.12.02-10.68v-42.99Z"/>
    <path class="cls-3" d="m63.65,40.76c.48.08.89.34,1.33.53.96.47,1.93.93,2.83,1.51-.12.21-.24.42-.36.63-1.03-.42-1.96-1.08-3.01-1.47-.17.29-.33.6-.37.93.88.43,1.8.82,2.6,1.39-.11.21-.21.41-.32.62-.92-.32-1.72-.93-2.65-1.26-.18.37-.52.77-.44,1.19.89.43,1.76.88,2.62,1.36-.05.26-.19.49-.36.7-.57-.23-1.07-.59-1.63-.85-.66-.35-1.35-.63-2.02-.95.56-1.46,1.21-2.88,1.78-4.33"/>
    <path class="cls-3" d="m33.88,42.04c.6-.39,1.28-.72,2-.75.55-.03,1.12.26,1.31.79-.3.16-.61.3-.93.43-.77-.63-1.96-.06-2.28.78.13.1.26.25.44.21.99-.06,1.92-.65,2.92-.45.76.18,1.15,1.1.81,1.79-.39.76-1.21,1.15-1.96,1.47-.75.28-1.81.24-2.27-.52.27-.21.55-.4.84-.57.37.2.79.46,1.22.27.6-.19,1.43-.64,1.17-1.39-1.15-.22-2.2.65-3.35.41-.45-.09-.87-.47-.85-.95-.06-.65.43-1.16.91-1.52"/>
    <path class="cls-37" d="m80.29,46.32c.37-.27.66-.69,1.12-.81.05.12.08.24.1.37.07,1.8.14,3.61.5,5.38.36,1.96.79,3.94,1.63,5.76.42,1.04,1.04,1.97,1.62,2.93,1.21,2,2.52,3.97,3.39,6.16.33,1,.78,1.97.83,3.04.14,1.53.11,3.14-.46,4.59-.71,2.45-2.19,4.57-3.46,6.76-.81,1.19-1.54,2.45-2.09,3.79-.33.95-.71,1.89-.92,2.88-.17.86-.53,1.67-.57,2.55-.07.98-.32,1.95-.35,2.94,0,.88-.11,1.76-.14,2.64-.48.13-.79-.33-1.09-.62-.39-.44-.92-.71-1.34-1.1-.58-.53-1.14-1.07-1.75-1.55-1.02-.72-1.84-1.69-2.86-2.41-1.17-.99-2.31-2.02-3.52-2.97-.2-.17-.43-.32-.58-.54-.07-.41.33-.67.52-.99,1.82-2.66,3.14-5.67,3.82-8.83.43-1.41.43-2.89.58-4.34.03-1.71.04-3.44-.3-5.12-.39-2.51-1.12-4.98-2.3-7.24-.69-1.6-1.72-3.02-2.72-4.44,1.08-1.04,2.28-1.95,3.39-2.96.82-.52,1.42-1.31,2.23-1.83,1.14-.97,2.24-2,3.43-2.93.43-.4.86-.78,1.32-1.13"/>
    <path class="cls-37" d="m19.33,47.1c.02-.29.07-.58.24-.82.29.19.57.41.82.65.46.44,1,.79,1.47,1.22.51.48,1.1.85,1.61,1.33,1.34,1.19,2.74,2.32,4.07,3.52.75.64,1.48,1.3,2.26,1.9.18.17.42.3.52.53-2.2,2.86-3.75,6.21-4.56,9.72-.26.99-.4,2-.48,3.02-.22,1.34-.11,2.7-.13,4.05.1,1.63.28,3.27.75,4.84.74,2.94,2.02,5.75,3.75,8.24.32.45.68.87.95,1.35-.38.44-.86.77-1.3,1.15-1.29,1.13-2.6,2.22-3.9,3.33-.39.3-.76.63-1.1.99s-.78.6-1.15.92c-.7.65-1.44,1.26-2.16,1.88-.5.41-.95.88-1.53,1.18-.09-.32-.15-.65-.16-.99-.02-.89-.12-1.77-.16-2.66-.27-2.17-.7-4.32-1.4-6.39-.48-1.74-1.45-3.28-2.44-4.77-.81-1.36-1.63-2.72-2.38-4.12-.42-.92-.85-1.83-1.15-2.79-.44-1.11-.46-2.33-.45-3.51,0-1.08.14-2.17.54-3.19.22-.82.66-1.55.99-2.33.39-.88.97-1.66,1.41-2.51.83-1.47,1.82-2.84,2.61-4.33.7-1.59,1.29-3.23,1.61-4.94.34-1.2.5-2.44.66-3.67.04-.93.1-1.87.17-2.8"/>
    <path class="cls-40" d="m47.94,46.94c4.8-.48,9.75.56,13.94,2.95,3.93,2.21,7.18,5.58,9.31,9.55,2.09,3.93,3.08,8.45,2.76,12.89-.29,4.92-2.18,9.74-5.29,13.56-2.61,3.22-6.05,5.75-9.92,7.24-4.82,1.88-10.28,2.1-15.23.6-3.87-1.14-7.42-3.3-10.22-6.2-3.32-3.38-5.58-7.78-6.41-12.45-.81-4.57-.33-9.39,1.5-13.66,1.59-3.84,4.24-7.21,7.53-9.74,3.47-2.65,7.68-4.32,12.02-4.74"/>
    <path class="cls-18" d="m48.83,48.08c.46-.03.92-.06,1.39-.03.14.09.16.28.22.43.18.66.35,1.31.48,1.98.03.15.05.32.18.42.24-.94.61-1.84.95-2.74.49,0,.97.09,1.45.14-.11,1.45-.42,2.87-.62,4.3-.23,0-.45,0-.68-.02,0-1.09.22-2.17.28-3.25-.52,1-.76,2.12-1.19,3.15-.21-.02-.42-.03-.63-.04-.29-1.08-.5-2.19-.85-3.25-.03,1.08,0,2.15,0,3.23-.24.03-.48.05-.73.04-.05-1.45-.2-2.91-.23-4.36"/>
    <path class="cls-15" d="m44.26,48.82c1.19-.33,2.41-.54,3.64-.65.02.23.04.47.07.7-.42.12-.86.14-1.3.19.08,1.2.38,2.37.55,3.56-.23.02-.52.23-.73.07-.28-1.15-.42-2.33-.77-3.46-.42.1-.85.2-1.28.29-.06-.24-.13-.47-.18-.71"/>
    <path class="cls-15" d="m54.52,48.48c1.15.21,2.29.51,3.39.93-.08.22-.17.43-.25.65-.84-.16-1.62-.57-2.48-.61-.06.3-.13.59-.17.89.72.18,1.46.34,2.14.65-.08.21-.16.43-.24.64-.7-.17-1.37-.42-2.07-.56-.12.35-.22.71-.29,1.08.74.23,1.51.4,2.23.71-.08.23-.17.46-.29.68-.91-.33-1.85-.59-2.8-.77,0-.39.11-.77.19-1.15.23-1.05.41-2.1.65-3.14"/>
    <path class="cls-19" d="m41.83,49.59c.43-.17.91-.32,1.38-.23.74.22,1.1,1.27.62,1.88-.11.14-.23.27-.35.4.64.34,1.13.89,1.65,1.39-.23.15-.48.28-.76.28-.56-.37-.99-.96-1.66-1.14-.28-.07-.55.05-.79.18.19.58.55,1.09.69,1.68-.21.09-.41.18-.62.27-.68-1.29-1.34-2.59-2.01-3.89.59-.32,1.21-.57,1.83-.82"/>
    <path class="cls-15" d="m58.87,49.82c.32.05.61.2.9.34.18,1.14.26,2.29.29,3.45.54-.81.97-1.69,1.53-2.49.25.13.5.28.74.43-.34.65-.79,1.23-1.17,1.85-.42.61-.78,1.26-1.24,1.83-.2-.12-.4-.23-.6-.34,0-.91-.08-1.81-.12-2.71,0-.21-.03-.42-.14-.59-.41.82-.8,1.65-1.19,2.48-.24-.04-.45-.14-.66-.26.5-1.35,1.14-2.65,1.67-3.99"/>
    <path class="cls-45" d="m41.16,50.69c.52-.22,1.02-.5,1.59-.57.44,0,.64.69.24.91-.45.26-.93.46-1.44.6-.15-.3-.3-.61-.39-.94"/>
    <path class="cls-12" d="m74.9,52.69c.46-.36.88-.78,1.39-1.09.27.27.51.57.71.9-1.16.92-2.34,1.8-3.52,2.69-.41.3-.63-.37-.85-.61.74-.65,1.52-1.26,2.27-1.88"/>
    <path class="cls-19" d="m37.04,52.18c.17-.16.37-.26.56-.39,1.37.78,2.66,1.72,3.83,2.79-.2.13-.39.3-.63.34-.32-.15-.57-.4-.86-.59-.46.28-.9.6-1.33.92.05.36.17.7.29,1.04-.19.18-.38.36-.61.48-.5-1.31-.91-2.65-1.22-4.01,0-.18-.12-.4-.02-.57"/>
    <path class="cls-14" d="m62.54,52.59c-.04-.26.27-.43.4-.63,1.01.74,2.05,1.48,2.85,2.45-.17.16-.34.32-.51.48-.34-.3-.66-.62-.99-.92-.86.86-1.57,1.86-2.43,2.71-.17-.13-.35-.25-.49-.42.08-.34.4-.57.59-.85.52-.69,1.12-1.33,1.59-2.06-.33-.26-.69-.49-1.01-.77"/>
    <path class="cls-47" d="m37.98,52.98c.45.24.87.53,1.27.85-.28.24-.58.45-.9.62-.16-.48-.3-.97-.37-1.47"/>
    <path class="cls-39" d="m48.55,53.42c2.54-.24,5.15.08,7.51,1.06,3.89,1.54,7.08,4.66,8.83,8.44,2.06,4.37,2.21,9.6.38,14.07-1.5,3.75-4.38,6.95-8,8.78-4.04,2.06-8.97,2.25-13.15.49-3.46-1.43-6.38-4.11-8.16-7.39-2.25-4.04-2.75-8.99-1.46-13.42,1.16-4.04,3.85-7.63,7.45-9.8,1.99-1.22,4.26-1.97,6.58-2.22"/>
    <path class="cls-10" d="m77.57,53.61c.19-.18.32.12.43.24.17.26.46.56.32.9-.38,1.04-.83,2.05-1.36,3.02.89-.39,1.71-.92,2.59-1.34.2.32.38.66.51,1.02-1.42.68-2.81,1.44-4.25,2.07-.17-.3-.32-.6-.46-.91.55-1.01,1.03-2.04,1.5-3.09-.88.39-1.61,1.06-2.47,1.48-.17-.25-.33-.5-.5-.75.37-.4.86-.66,1.29-.97.81-.55,1.58-1.14,2.4-1.67"/>
    <path class="cls-17" d="m34.82,54.13c.8-.49,1.85.18,1.94,1.06.12.89-.72,1.46-1.21,2.08.39.38.82.72,1.21,1.1-.15.2-.31.4-.49.58-1.13-.93-2.29-1.82-3.39-2.78.6-.72,1.17-1.5,1.95-2.05"/>
    <path class="cls-50" d="m34.06,55.93c.34-.37.66-.78,1.1-1.03.4-.17.87.23.77.65-.19.48-.61.81-.92,1.2-.37-.21-.66-.51-.94-.82"/>
    <path class="cls-22" d="m48.3,55.49c2.63-.34,5.37.04,7.77,1.19,3.38,1.58,6.08,4.52,7.44,7.98,1.67,4.16,1.42,9.07-.72,13.02-1.9,3.55-5.27,6.34-9.2,7.33-2.4.58-4.96.56-7.34-.14-3.81-1.11-7.05-3.92-8.83-7.46-2.01-3.92-2.2-8.71-.56-12.79,1.38-3.45,4.08-6.4,7.47-7.96,1.25-.59,2.6-.97,3.97-1.17"/>
    <path class="cls-12" d="m21.08,56.3c.5-.36,1.31-.25,1.64.3.32.44.16,1,.09,1.49.81-.39,1.73-.41,2.61-.45-.09.37-.32.68-.51,1-.81.19-1.69.19-2.42.64-.3.24-.47.6-.55.97.6.25,1.19.51,1.8.75-.07.34-.22.65-.36.96-1.48-.48-2.91-1.09-4.37-1.59.02-.21.05-.42.14-.62.33-.8.67-1.6,1.07-2.36.21-.42.48-.82.87-1.1"/>
    <path class="cls-13" d="m30.3,60.47c.51-1.18,1.14-2.32,1.91-3.35.18.12.37.24.53.4.03.17-.14.3-.21.44-.4.61-.77,1.24-1.11,1.89.15.28.54.34.8.51.44-.69.75-1.47,1.31-2.09.16.16.42.25.51.47-.35.67-.83,1.27-1.13,1.98.31.22.63.42.99.54.42-.73.79-1.5,1.34-2.14.19.15.38.3.56.45-.63.88-1.14,1.83-1.63,2.8-1.3-.63-2.6-1.26-3.89-1.91"/>
    <path class="cls-36" d="m21.04,57.61c.16-.28.5-.41.79-.27.25.18.2.56.11.81-.24.59-.52,1.16-.77,1.74-.36-.09-.69-.25-1.02-.41.25-.64.52-1.29.88-1.88"/>
    <path class="cls-19" d="m66.8,57.35c.58-.13,1.24-.04,1.67.39.73.67,1.21,1.76.89,2.74-.36,1.09-1.66,1.64-2.74,1.49-1.3-.28-2.17-1.88-1.57-3.1.34-.72,1.01-1.28,1.76-1.52"/>
    <path class="cls-52" d="m66.91,58.27c.86-.39,1.72.5,1.75,1.33.07.85-.8,1.4-1.54,1.53-.8.15-1.54-.62-1.45-1.4.02-.7.65-1.21,1.25-1.45"/>
    <path class="cls-6" d="m79.74,58.53c.24-.13.49-.25.76-.26.55,1.42,1.21,2.82,1.53,4.32-.25.07-.51.13-.77.16-.16-.52-.3-1.04-.49-1.55-1.27.31-2.45.91-3.73,1.2-.13-.28-.24-.56-.33-.85,1.18-.51,2.41-.94,3.61-1.41-.08-.58-.45-1.06-.59-1.62"/>
    <path class="cls-32" d="m47.03,59.84c1.4-.53,2.93-.49,4.4-.43,1.95.22,3.77,1.13,5.27,2.37,1.07.8,1.9,1.88,2.54,3.05.22.39.4.81.53,1.23-1.62.67-3.27,1.26-4.9,1.89-.06-.03-.18-.09-.24-.12-.88-2.03-3.27-3.26-5.43-2.76-2.31.44-4.11,2.71-3.99,5.06-.12,1.84.88,3.68,2.47,4.6,1.42.89,3.33.95,4.8.12,1.02-.53,1.79-1.46,2.3-2.47,1.64.73,3.32,1.37,4.93,2.15-.19.5-.43.98-.71,1.44-1.6,2.63-4.38,4.57-7.45,4.97-1.64.09-3.35.13-4.9-.52-2.2-.83-4.02-2.48-5.28-4.44-2.07-3.33-2.14-7.77-.23-11.19.38-.85,1.04-1.52,1.64-2.2.56-.54,1.1-1.12,1.77-1.53.76-.53,1.63-.85,2.47-1.21"/>
    <path class="cls-15" d="m66.54,63.46c1.34-.54,2.66-1.12,4.02-1.63.48,1.24.88,2.54,1.07,3.86-.23.05-.46.09-.68.12-.24-.92-.42-1.85-.75-2.74-.32.1-.64.21-.96.32.16.77.48,1.5.55,2.29-.24.05-.48.1-.72.1-.15-.71-.3-1.43-.58-2.11-.57.16-1.11.45-1.69.56-.1-.26-.18-.51-.25-.78"/>
    <path class="cls-10" d="m19.51,62.05c.62-.17,1.27.05,1.83.32.74.37,1.15,1.2,1.22,2,.02,1.09-.31,2.28-1.2,2.98-.62.47-1.45.49-2.18.35-.84-.17-1.47-.94-1.6-1.76-.09-.74-.02-1.51.26-2.21.28-.76.85-1.48,1.67-1.68"/>
    <path class="cls-15" d="m29.88,62.4c.6-.5,1.48-.37,2.14-.05.79.33,1.45,1.13,1.35,2.02-.1.84-.44,1.64-.53,2.49-.17,0-.33,0-.5-.04-1.25-.26-2.5-.49-3.75-.72.02-.59.21-1.14.34-1.71.19-.71.35-1.52.96-2"/>
    <path class="cls-51" d="m30.18,63.31c.29-.38.82-.34,1.23-.19.53.18,1.17.49,1.22,1.13-.05.54-.23,1.05-.35,1.57-.92-.17-1.82-.44-2.74-.65.11-.65.23-1.34.65-1.86"/>
    <path class="cls-37" d="m19.51,63.18c.86-.22,1.97.28,2.16,1.2.21.85-.22,1.88-1.05,2.22-.79.21-1.86-.02-2.15-.88-.25-.93.06-2.18,1.04-2.54"/>
    <path class="cls-10" d="m77.67,64.33c1.52-.38,3.02-.81,4.55-1.16.36,1.33.56,2.69.77,4.05-.25.17-.55.17-.84.13-.11-.97-.23-1.94-.49-2.87-.32.04-.63.09-.94.17.08.85.31,1.68.38,2.53-.16.26-.53.15-.79.18-.1-.83-.25-1.66-.42-2.48-.41.06-.91.03-1.23.29.08.9.38,1.77.39,2.68-.25,0-.55.18-.76.04-.17-.58-.17-1.2-.3-1.79-.09-.59-.31-1.16-.33-1.76"/>
    <path class="cls-40" d="m38.18,64.82c.99-.05,1.98,0,2.97-.03-1.91,3.42-1.84,7.86.23,11.19-1.04-.02-2.09.02-3.13-.02-.25-.22-.3-.6-.43-.89-1.17-3.3-1.06-7.04.36-10.25"/>
    <path class="cls-40" d="m59.26,64.83c.91-.06,1.82-.02,2.72-.03.2-.04.26.21.34.35,1.41,3.43,1.37,7.42-.14,10.81-1.06.02-2.11.02-3.17,0,.28-.46.52-.94.71-1.44-1.62-.78-3.29-1.41-4.93-2.15.52-1.46.6-3.15-.15-4.55.06.03.18.09.24.12,1.63-.63,3.28-1.22,4.9-1.89-.13-.43-.31-.84-.53-1.23"/>
    <path class="cls-53" d="m49.21,65.07c2.16-.49,4.55.73,5.43,2.76.75,1.4.67,3.09.15,4.55-.51,1.02-1.28,1.94-2.3,2.47-1.47.83-3.38.77-4.8-.12-1.59-.92-2.6-2.76-2.47-4.6-.12-2.35,1.68-4.62,3.99-5.06"/>
    <path class="cls-7" d="m78.58,69.7c.55-1.21,2.13-1.74,3.33-1.24.8.34,1.29,1.19,1.34,2.03.04.72.03,1.51-.42,2.11-.24.38-.65.6-1.08.7-.04-.32-.1-.64-.1-.97.18-.31.58-.43.7-.79.28-.71.08-1.68-.63-2.05-.7-.29-1.62-.21-2.18.34-.56.6-.46,1.58-.02,2.22.19.11.42.05.63.03,0-.39.02-.77.03-1.16h.8c.04.75-.04,1.49-.09,2.24-.66-.01-1.33-.02-1.98-.15-.58-.98-.78-2.23-.34-3.31"/>
    <path class="cls-46" d="m17.08,68.58c1.57.09,3.13.22,4.69.36.01.37,0,.74-.04,1.11-1.03.69-2.07,1.39-3,2.22.99.03,1.98-.05,2.97-.11.09.34.13.69.12,1.05-1.58.09-3.16.33-4.75.33,0-.42-.07-.85,0-1.26.92-.87,1.98-1.59,3-2.34-1-.16-2.02-.06-3.03-.17,0-.39,0-.79.02-1.18"/>
    <path class="cls-19" d="m29.94,69.23c.57-.26,1.31.06,1.54.64.12.3.12.63.04.94-.22.74-1.23,1.12-1.85.61-.76-.52-.63-1.89.26-2.19"/>
    <path class="cls-17" d="m69.61,69.2c.88-.34,1.82.65,1.52,1.52-.14.82-1.24,1.24-1.87.69-.79-.54-.59-1.95.35-2.21"/>
    <path class="cls-25" d="m45.15,71c-.17-.51-.13-1.1,0-1.63.06.54.06,1.09,0,1.63"/>
    <path class="cls-17" d="m67.54,75.02c.07-.44.14-.88.27-1.3.75.77,1.34,1.68,1.98,2.53.53.28,1.15.35,1.72.53-.03.45-.16.87-.3,1.3-.62-.06-1.16-.43-1.77-.52-.87.33-1.75.63-2.65.85.11.1.22.21.33.31-.16.45-.42.87-.57,1.32,1.03.57,2.05,1.16,3.09,1.7-.09.4-.36.73-.54,1.1-.36-.09-.64-.34-.95-.53-.72-.45-1.42-.92-2.15-1.35-.26.38-.51.78-.78,1.16-.21-.11-.4-.24-.59-.38.17-.41.47-.76.69-1.15.65-1.04,1.12-2.17,1.57-3.3.65-.17,1.3-.33,1.93-.59-.35-.62-.86-1.12-1.29-1.68"/>
    <path class="cls-6" d="m78.2,73.93c.18-.06.36-.06.55-.03,1.39.2,2.79.32,4.18.52,0,.7-.17,1.38-.28,2.06-.14.64-.22,1.36-.71,1.83-.48.45-1.29.37-1.73-.1-.29-.3-.32-.73-.39-1.11-.71.5-1.56.74-2.4.91.06-.37.16-.73.3-1.08.67-.25,1.39-.44,1.99-.85.32-.22.36-.63.37-.99-.63-.1-1.26-.21-1.9-.28,0-.3.02-.6.03-.89"/>
    <path class="cls-6" d="m19.27,74.44c.94-.27,2.02.08,2.6.88.37.52.58,1.15.66,1.78.14.83-.07,1.77-.71,2.35-.63.6-1.57.82-2.41.63-.68-.24-1.2-.8-1.48-1.45-.36-.82-.49-1.77-.28-2.65.19-.78.83-1.41,1.62-1.55"/>
    <path class="cls-13" d="m31.1,74.75c.63-.11,1.25-.3,1.89-.32.15.72.31,1.43.52,2.13.14.47.24,1.01,0,1.46-.32.7-1.34.99-1.94.46-.63-.59-.73-1.49-.97-2.27-.54.08-1.05.3-1.59.36-.09-.44-.18-.89-.28-1.33.78-.21,1.59-.32,2.38-.5"/>
    <path class="cls-38" d="m80.9,75.29c.37,0,.76.01,1.11.18-.11.53-.18,1.08-.34,1.6-.07.3-.39.56-.7.41-.28-.05-.35-.38-.33-.62.05-.53.18-1.05.26-1.57"/>
    <path class="cls-37" d="m19.3,75.61c.46-.16.98-.22,1.44,0,.92.47,1.25,1.77.74,2.65-.43.63-1.28.88-2,.7-.81-.32-1.14-1.28-1.09-2.1,0-.56.39-1.07.91-1.25"/>
    <path class="cls-49" d="m31.37,75.96c.37-.09.73-.18,1.1-.26.2.51.36,1.05.3,1.6-.24.22-.64.43-.91.15-.33-.42-.48-.97-.49-1.49"/>
    <path class="cls-10" d="m77.24,78.48c.76.11,1.46.44,2.2.64.78.26,1.59.44,2.34.78-.09.34-.2.68-.35,1.01-.6-.11-1.15-.38-1.72-.57-.91-.34-1.84-.63-2.74-1,.09-.28.18-.57.27-.85"/>
    <path class="cls-17" d="m32.58,79.8c.61-.28,1.18-.65,1.82-.85.23.24.31.57.46.86-.87.55-1.81.98-2.65,1.57-.57.43-.15,1.29.37,1.55.51.07.9-.36,1.3-.6.59-.37,1.12-.86,1.75-1.17.24.2.38.49.56.74-.59.53-1.25.98-1.86,1.48-.44.31-.91.74-1.49.66-.67-.1-1.1-.71-1.41-1.25-.34-.55-.54-1.25-.31-1.88.26-.6.93-.82,1.46-1.11"/>
    <path class="cls-6" d="m22.56,80.44c.27-.11.54-.2.82-.27.15.3.28.61.37.94-.62.29-1.26.53-1.88.8.23.76.65,1.45.98,2.17.67-.21,1.24-.65,1.88-.94.19.3.36.61.5.93-.86.54-1.76,1.02-2.63,1.54-.5.26-.94.62-1.48.8-.19-.32-.41-.63-.52-.98,0-.16.2-.2.3-.28.41-.22.84-.42,1.24-.68-.36-.72-.71-1.45-1.01-2.2-.59.12-1.12.44-1.67.66-.23-.35-.39-.74-.45-1.15,1.18-.49,2.39-.89,3.57-1.35"/>
    <path class="cls-3" d="m76.1,81.41c.13.01.25.04.38.08,1.09.48,2.15,1.02,3.25,1.46.25-.51.43-1.05.7-1.54.24.1.48.2.71.33-.58,1.43-1.22,2.84-2.02,4.17-.21-.16-.57-.21-.66-.47.24-.49.54-.94.74-1.45-1.14-.6-2.3-1.17-3.45-1.75.1-.28.22-.56.35-.83"/>
    <path class="cls-17" d="m64.21,82.23c.22.11.42.26.6.42-.41.69-1.04,1.19-1.53,1.81.2.24.41.46.64.67.57-.53,1.07-1.14,1.6-1.72.18.15.35.3.53.45-.42.69-1.04,1.23-1.58,1.83.23.27.48.53.72.79.81-.56,1.32-1.44,2.03-2.11.18.15.35.3.53.45-.81,1.13-1.81,2.11-2.84,3.04-.98-1.08-1.9-2.21-2.87-3.3.74-.76,1.53-1.48,2.17-2.34"/>
    <path class="cls-17" d="m36.74,82.99c.24-.27.42.13.58.28.43.54,1.01.95,1.46,1.48.39.43.42,1.21-.06,1.58-.24.22-.58.16-.88.19.06.35.26.73.09,1.08-.23.59-.97.88-1.54.64-.53-.21-.92-.63-1.34-1-.5-.48-1.01-.96-1.4-1.53,1.03-.9,2.06-1.81,3.09-2.72"/>
    <path class="cls-5" d="m37.01,84.09c.38.31.76.64,1.05,1.03.26.34-.17.81-.55.65-.45-.22-.77-.63-1.14-.97.17-.27.4-.49.63-.71"/>
    <path class="cls-13" d="m58.98,86.65c.86-.51,1.71-1.04,2.51-1.66.16.19.31.38.46.57-.53.47-1.14.84-1.72,1.24.11.33.31.62.52.9.56-.34,1.1-.71,1.62-1.11.18.18.37.38.45.64-.54.4-1.12.75-1.66,1.15.29.53.66,1.01.92,1.54-.33.2-.65.43-1.02.53-.68-1.27-1.39-2.53-2.08-3.79"/>
    <path class="cls-10" d="m73.48,85.9c.16-.3.36-.57.59-.82.47.31.91.64,1.38.95.46.33,1.06.1,1.58.1.67-.01,1.33-.14,2-.14-.18.4-.4.78-.68,1.13-.74,0-1.49-.02-2.23,0,.16.6.33,1.2.51,1.8.24.5-.33.87-.6,1.22-.43-.99-.52-2.1-1-3.07-.47-.45-1.05-.76-1.54-1.17"/>
    <path class="cls-44" d="m35.78,85.31c.45.39.94.78,1.27,1.29.19.44-.34.94-.76.67-.48-.33-.93-.73-1.28-1.2.25-.26.51-.52.77-.76"/>
    <path class="cls-13" d="m40.21,85.8c.29.11.56.29.81.48-.61,1.03-1.26,2.05-1.87,3.09.72.49,1.53.84,2.32,1.22-.09.23-.19.45-.31.66-1.17-.49-2.28-1.11-3.33-1.8l-.02-.09c.77-1.21,1.6-2.37,2.4-3.56"/>
    <path class="cls-17" d="m43.36,87.45c.28.08.56.17.84.26-.06.4-.22.77-.36,1.15-.38,1-.72,2.01-1.1,3-.36-.11-.72-.24-1.06-.41.55-1.34,1.12-2.67,1.68-4.01"/>
    <path class="cls-13" d="m56.02,87.9c.3-.13.61-.24.92-.34.63.66,1.26,1.33,1.95,1.93.48.47,1.04.85,1.52,1.33-.36.17-.7.42-1.1.47-.3-.18-.48-.51-.79-.67-.59.15-1.14.43-1.74.56-.06.36-.11.72-.14,1.08-.38.13-.77.23-1.17.28.26-1.53.49-3.08.55-4.63"/>
    <path class="cls-15" d="m45.62,88.42c1.12-.38,2.72.17,2.88,1.49-.31.02-.62.03-.93.03-.18-.33-.38-.73-.78-.82-.4-.15-.89-.04-1.17.28-.46.5-.6,1.24-.48,1.89.27.72,1.39,1,1.91.4.1-.12.19-.25.28-.37.35.08.68.23,1.01.37-.23.53-.71.99-1.3,1.06-.8.08-1.7,0-2.33-.56-.47-.38-.74-1-.67-1.6.11-.92.67-1.87,1.59-2.16"/>
    <path class="cls-13" d="m51.77,88.71c.67-.21,1.51-.29,2.1.17.25.18.37.48.49.75-.3.1-.6.19-.92.18-.26-.23-.49-.62-.9-.51-.35-.01-.93.36-.56.72.75.41,1.73.1,2.44.64.61.46.62,1.47,0,1.94-.68.48-1.58.58-2.38.47-.64-.09-1.22-.64-1.22-1.31.33-.04.65-.1.98-.13.2.32.44.69.86.72.43.02.99-.09,1.16-.54.07-.45-.45-.54-.78-.57-.69-.1-1.57-.08-1.98-.75-.42-.66,0-1.55.72-1.77"/>
    <path class="cls-44" d="m56.88,88.85c.38.35.71.75,1.05,1.13-.34.18-.71.28-1.08.37,0-.5.02-1,.03-1.5"/>
    <path class="cls-37" d="m65.36,90.91c.17-.2.53-.25.69-.01.42.48.8.99,1.21,1.49.99,1.29,2.16,2.42,3.15,3.71.4.53.91.97,1.28,1.52.41.6.95,1.1,1.41,1.66.55.67,1.14,1.31,1.66,2.01.28.4.79.64.9,1.13-.64.17-1.31.12-1.96.21-2.19.02-4.36.37-6.47.94-1.52.43-3.03.96-4.42,1.71-.98.61-1.99,1.18-2.97,1.8-1.29.84-2.65,1.56-4.04,2.23-2,1.06-4.34,1.44-6.59,1.15-1.69-.31-3.33-.88-4.84-1.71-1.83-1-3.59-2.12-5.37-3.21-1.08-.65-2.25-1.13-3.44-1.55-1.32-.42-2.67-.71-4.01-1-1.3-.16-2.6-.36-3.91-.36-.65-.08-1.31-.07-1.95-.21.06-.13.1-.27.2-.38.71-.8,1.4-1.62,2.13-2.41.42-.44.71-.99,1.16-1.41.38-.36.69-.78,1.02-1.19,1.68-1.88,3.22-3.87,4.92-5.75.13-.16.34-.05.46.05,2.14,1.58,4.56,2.77,7.08,3.58,1.2.3,2.37.75,3.61.86.82.07,1.62.26,2.44.25,1.83.02,3.69.11,5.5-.3,3.17-.48,6.23-1.63,8.96-3.32.75-.46,1.5-.93,2.16-1.51"/>
    <path class="cls-12" d="m35.19,94.43c.32,0,.56.31.83.46-.54,1.09-1.27,2.08-1.88,3.13-.08.11-.11.3.04.37.82.48,1.67.93,2.51,1.38-.09.24-.18.47-.28.71-.24-.07-.47-.17-.68-.3-1.07-.59-2.16-1.16-3.15-1.88.63-1,1.31-1.95,1.95-2.94.22-.31.4-.64.65-.92"/>
    <path class="cls-6" d="m64.35,95.41c.25-.3.62-.46.97-.62-.04,1.09-.17,2.18-.31,3.26.16.68.73,1.2.86,1.89-.31.15-.6.35-.94.42-.47-.48-.54-1.29-1.04-1.77-.92-.5-1.86-.98-2.73-1.56.12-.34.65-.33.94-.52.68.36,1.31.79,2,1.14.23-.73.1-1.51.26-2.24"/>
    <path class="cls-12" d="m39.48,97.15c.93-.18,1.91.09,2.66.64.51.42.95,1.03.93,1.72.05.8-.21,1.66-.84,2.19-.67.54-1.61.58-2.4.34-.79-.23-1.58-.67-1.99-1.41-.72-1.32.23-3.13,1.64-3.48"/>
    <path class="cls-12" d="m57.1,98.24c1.29-.3,2.53-.74,3.77-1.18.12.23.22.48.29.73-.48.2-1,.33-1.45.59.4,1.23.88,2.44,1.21,3.7-.35.12-.69.23-1.05.32-.41-1.23-.76-2.48-1.14-3.72-.54.08-1.05.32-1.6.33-.02-.26-.04-.51-.04-.77"/>
    <path class="cls-37" d="m39.85,98c.91-.21,2.03.3,2.21,1.27.06.79-.3,1.79-1.15,2-.97.21-2.18-.45-2.26-1.51.06-.73.46-1.53,1.2-1.77"/>
    <path class="cls-3" d="m43.97,98.3c.35.02.7.09,1.04.19.32.7.54,1.43.91,2.1.48-.45.89-.98,1.3-1.49.29-.43.84-.12,1.25-.11-.57.95-1.45,1.68-2.13,2.54-.16.62-.18,1.26-.3,1.89-.36,0-.72-.05-1.07-.13,0-.66.21-1.29.26-1.94-.37-1.04-.98-1.99-1.26-3.06"/>
    <path class="cls-10" d="m53.67,98.85c.31-.04.62-.07.93-.05.19,1.25.34,2.51.56,3.76l.09.06c.99-.08,1.93-.42,2.92-.51.06.25.1.51.1.77-1.37.26-2.73.62-4.13.67-.14-1.57-.43-3.12-.48-4.7"/>
    <path class="cls-10" d="m50,99.05h.91c.72,1.58,1.55,3.11,2.47,4.59-.4.06-.8.09-1.21.08-.18-.32-.36-.65-.52-.98-.82,0-1.65-.02-2.47,0-.15.34-.33.68-.54.99-.38-.02-.76-.05-1.13-.1.13-.3.3-.57.47-.84.75-1.2,1.41-2.45,2.02-3.73"/>
    <path class="cls-31" d="m49.67,101.86c.26-.54.5-1.09.78-1.63.24.56.51,1.1.73,1.67-.5,0-1.02.06-1.51-.05"/>
    <path class="cls-16" d="m96.13,96.33c-2.73,2.56-8.29,7.63-13.95,12.08-3.86,3.03-13.96,10.59-24.41,15.34-2.24,1.02-5.26,2.16-6.83,2.67-1.57-.51-4.59-1.65-6.83-2.67-10.45-4.74-20.55-12.31-24.41-15.34-5.65-4.44-11.21-9.52-13.95-12.08V19.08c1.99-1.4,5.24-3.51,9.18-5.41,4.94-2.38,18.33-7.91,36.01-7.91s31.07,5.53,36.01,7.91c3.91,1.88,7.18,4.01,9.18,5.42v77.25h0Z"/>
    <path class="cls-41" d="m97.11,19.95c-1.99-1.39-4.4-2.93-7.12-4.37-6.68-3.57-20.65-9.56-39.04-9.56h0c-18.39,0-32.36,5.99-39.04,9.56-2.65,1.42-5.01,2.92-6.98,4.28v23.6c2.41-2.29,3.99-3.65,5.9-5.22l.18-.15.17-.15s3.97-3.53,9.38-6.42c4.16-2.22,15.46-7.4,30.4-7.4s26.24,5.17,30.4,7.4c5.27,2.81,9.16,6.23,9.39,6.43l.16.14.21.17c2.26,1.83,4.1,3.53,5.99,5.46v-23.76h0Z"/>
    <path class="cls-41" d="m99.94,50.65l-4.85-4.95c-1.91-1.95-3.69-3.57-5.75-5.24l-.5-.43c-.11-.1-3.8-3.35-8.81-6.02-3.98-2.12-14.77-7.07-29.07-7.07s-25.09,4.94-29.07,7.07c-5.07,2.71-8.79,6-8.82,6.03l-.45.38c-1.83,1.5-3.36,2.81-5.74,5.08l-4.78,4.55v-31.68l1.22-.84c2.38-1.65,4.82-3.15,7.26-4.45,6.92-3.7,21.36-9.9,40.37-9.9s33.46,6.2,40.38,9.9c2.48,1.33,4.97,2.86,7.4,4.55l1.21.84v32.17h0Zm-7.18-14.71l.15.12c.47.38.93.76,1.37,1.14v-15.75c-1.86-1.24-3.74-2.37-5.62-3.37-6.45-3.45-19.93-9.23-37.71-9.23s-31.26,5.78-37.71,9.23c-1.83.98-3.67,2.08-5.48,3.28v15.75c.42-.35.84-.7,1.28-1.06l.24-.21s4.17-3.74,9.95-6.82c4.35-2.32,16.16-7.73,31.73-7.73s27.38,5.41,31.74,7.73c5.49,2.93,9.49,6.42,9.93,6.81l.13.12h0Z"/>
    <path class="cls-33" d="m97.11,19.95c-1.99-1.39-4.4-2.93-7.12-4.37-6.68-3.57-20.65-9.56-39.04-9.56h0c-18.39,0-32.36,5.99-39.04,9.56-2.65,1.42-5.01,2.92-6.98,4.28v23.6c2.41-2.29,3.99-3.65,5.9-5.22l.18-.15.17-.15s3.97-3.53,9.38-6.42c4.16-2.22,15.46-7.4,30.4-7.4s26.24,5.17,30.4,7.4c5.27,2.81,9.16,6.23,9.39,6.43l.16.14.21.17c2.26,1.83,4.1,3.53,5.99,5.46v-23.76h0Z"/>
    <path class="cls-20" d="m66.2,88.43c1.92,2.25,13.3,15.53,13.3,15.53-3.69.19-4.51.25-6.62.4-2.81.19-5.71.97-7.46,1.66-1.65.65-3.31,1.86-4.84,2.76-2.71,1.64-6.06,3.51-9.6,3.52h-.04c-3.55-.01-6.89-1.88-9.61-3.52-1.52-.89-3.19-2.1-4.84-2.76-1.75-.69-4.65-1.47-7.46-1.66-2.12-.14-2.94-.21-6.62-.4,0,0,11.37-13.28,13.28-15.53h30.51Z"/>
    <path class="cls-33" d="m37.63,88.62c-1.34,1.58-8.94,10.45-11.92,13.92,1,.06,1.72.11,2.59.17l.82.06c3.08.21,6.12,1.05,7.94,1.77,1.3.51,2.53,1.29,3.72,2.04.47.3.91.58,1.34.83h.02c2.63,1.6,5.69,3.3,8.79,3.3h.04c3.08,0,6.15-1.7,8.78-3.29h.02c.43-.26.87-.54,1.34-.84,1.19-.75,2.41-1.52,3.72-2.04,1.82-.72,4.86-1.56,7.94-1.77l.82-.06c.88-.06,1.59-.11,2.59-.17-2.98-3.47-10.57-12.34-11.91-13.92h-26.65,0Z"/>
    <path class="cls-20" d="m35.7,53.16c-1.92-2.25-13.3-15.53-13.3-15.53,3.69-.19,4.51-.25,6.62-.4,2.81-.19,5.71-.97,7.46-1.66,1.65-.65,3.31-1.86,4.84-2.76,2.71-1.64,6.06-3.51,9.6-3.52h.04c3.55,0,6.89,1.88,9.61,3.52,1.52.89,3.19,2.1,4.84,2.76,1.75.69,4.65,1.47,7.46,1.66,2.12.14,2.94.21,6.62.4,0,0-11.37,13.28-13.28,15.53h-30.51Z"/>
    <path class="cls-33" d="m64.27,52.97c1.34-1.58,8.94-10.45,11.92-13.92-1-.06-1.72-.11-2.59-.17l-.82-.06c-3.08-.21-6.12-1.05-7.94-1.77-1.3-.51-2.53-1.29-3.72-2.04-.47-.3-.91-.58-1.34-.83h-.02c-2.63-1.6-5.69-3.3-8.79-3.3h-.04c-3.08,0-6.15,1.7-8.78,3.29h-.02c-.43.26-.87.54-1.34.84-1.19.75-2.41,1.52-3.72,2.04-1.82.72-4.86,1.56-7.94,1.77l-.82.06c-.88.06-1.59.11-2.59.17,2.98,3.47,10.57,12.34,11.91,13.92,0,0,26.64,0,26.64,0Z"/>
    <path class="cls-20" d="m68.58,55.54c2.25-1.92,15.53-13.3,15.53-13.3.19,3.69.25,4.51.4,6.62.19,2.81.97,5.71,1.66,7.46.65,1.65,1.86,3.31,2.76,4.84,1.64,2.71,3.51,6.06,3.52,9.6v.04c0,3.55-1.88,6.89-3.52,9.61-.89,1.52-2.1,3.19-2.76,4.84-.69,1.75-1.47,4.65-1.66,7.46-.14,2.12-.21,2.93-.4,6.62,0,0-13.28-11.37-15.53-13.28,0,0,0-30.51,0-30.51Z"/>
    <path class="cls-33" d="m68.78,84.12c1.58,1.34,10.45,8.94,13.92,11.92.06-1,.11-1.72.17-2.59l.06-.82c.21-3.08,1.05-6.12,1.77-7.94.51-1.3,1.29-2.53,2.04-3.71.3-.47.58-.91.83-1.34v-.02c1.6-2.63,3.29-5.69,3.3-8.79v-.04c0-3.09-1.7-6.15-3.29-8.78v-.02c-.26-.43-.54-.87-.84-1.34-.75-1.19-1.52-2.41-2.04-3.72-.72-1.82-1.56-4.86-1.77-7.94l-.06-.82c-.06-.88-.11-1.59-.17-2.59-3.47,2.98-12.34,10.57-13.92,11.91v26.65-.02Z"/>
    <path class="cls-20" d="m33.31,86.05c-2.25,1.92-15.53,13.3-15.53,13.3-.19-3.69-.25-4.51-.4-6.62-.19-2.81-.97-5.71-1.66-7.46-.65-1.65-1.86-3.31-2.76-4.84-1.64-2.71-3.51-6.06-3.52-9.6v-.04c.01-3.55,1.88-6.9,3.52-9.61.89-1.52,2.1-3.19,2.76-4.84.69-1.75,1.47-4.65,1.66-7.46.14-2.12.21-2.94.4-6.62,0,0,13.28,11.37,15.53,13.29v30.51h0Z"/>
    <path class="cls-33" d="m33.12,57.47c-1.58-1.34-10.45-8.94-13.92-11.92-.06,1-.11,1.72-.17,2.59l-.06.82c-.21,3.08-1.05,6.12-1.77,7.94-.51,1.3-1.29,2.53-2.04,3.72-.3.47-.58.91-.83,1.34v.02c-1.6,2.63-3.3,5.69-3.3,8.79v.04c0,3.09,1.7,6.15,3.29,8.78v.02c.26.43.54.87.84,1.34.75,1.19,1.52,2.41,2.04,3.72.72,1.82,1.56,4.86,1.77,7.94l.06.82c.06.88.11,1.59.17,2.59,3.47-2.98,12.34-10.57,13.92-11.91v-26.65h0Z"/>
    <path class="cls-41" d="m50.95,3.06c-17.58,0-30.84,5.12-37.18,8.18-4.92,2.37-8.86,5.1-10.7,6.47v79.79c2.31,2.18,8.58,8.01,14.98,13.04,3.93,3.09,14.24,10.81,24.96,15.67,2.79,1.27,6.63,2.68,7.94,3.03,1.31-.35,5.15-1.76,7.94-3.03,10.72-4.86,21.03-12.58,24.96-15.67,6.4-5.03,12.67-10.85,14.98-13.04V17.7c-1.84-1.36-5.78-4.1-10.7-6.47-6.34-3.05-19.6-8.18-37.18-8.18m45.19,93.27c-2.73,2.56-8.29,7.63-13.95,12.08-3.86,3.03-13.96,10.59-24.41,15.34-2.24,1.02-5.26,2.16-6.83,2.67-1.57-.51-4.59-1.65-6.83-2.67-10.45-4.74-20.55-12.31-24.41-15.34-5.65-4.44-11.21-9.52-13.95-12.08V19.08c1.99-1.4,5.24-3.51,9.18-5.41,4.94-2.38,18.33-7.91,36.01-7.91s31.07,5.53,36.01,7.91c3.91,1.88,7.18,4.01,9.18,5.42v77.25-.02Z"/>
    <path class="cls-20" d="m76.31,70.73c0,14.01-11.35,25.36-25.36,25.36s-25.36-11.35-25.36-25.36,11.35-25.36,25.36-25.36,25.36,11.35,25.36,25.36"/>
  </g>
  <path class="cls-40" d="m25.51,84.52l-4.51,1.96-.5-1.14,1.77-.77-.97-2.23-1.77.77-.5-1.14,4.51-1.96.5,1.14-1.97.86.97,2.23,1.97-.86.5,1.14Z"/>
  <path class="cls-40" d="m20.85,79.88c-.49.1-.92.09-1.29-.02-.27-.09-.53-.23-.78-.43-.24-.2-.44-.43-.59-.69-.2-.35-.36-.77-.45-1.26-.18-.89-.11-1.64.23-2.27.33-.62.89-1.01,1.68-1.17.78-.16,1.44-.02,1.99.42.55.44.91,1.1,1.09,1.99.18.9.11,1.65-.22,2.27-.33.62-.88,1.01-1.65,1.16h-.01Zm-.29-1.25c.55-.11.93-.35,1.14-.72.22-.37.28-.8.18-1.29-.1-.48-.32-.85-.66-1.11-.34-.25-.79-.32-1.35-.21-.55.11-.93.35-1.14.71s-.26.79-.16,1.29.32.88.66,1.13.78.32,1.34.21h-.01Z"/>
  <path class="cls-40" d="m22.07,72.99l-4.92-.08.02-1.21,3.33-2.46-3.28-.05.02-1.15,4.92.08-.02,1.25-3.25,2.43,3.21.05-.02,1.15h0Z"/>
  <path class="cls-40" d="m19.7,67.11c-.49-.1-.88-.28-1.18-.54-.22-.19-.4-.42-.54-.7-.15-.28-.24-.57-.27-.87-.05-.4-.02-.85.08-1.34.19-.89.56-1.55,1.11-1.99.55-.44,1.22-.58,2-.41.78.16,1.33.56,1.66,1.18s.4,1.37.21,2.26-.56,1.56-1.11,2c-.55.44-1.2.57-1.97.41h.01Zm.23-1.26c.55.12.99.05,1.34-.21s.57-.62.68-1.11c.1-.48.05-.91-.17-1.28-.21-.37-.6-.61-1.16-.73-.55-.12-.99-.05-1.33.19-.34.24-.56.62-.66,1.12-.11.5-.05.93.16,1.3s.59.61,1.14.72Z"/>
  <path class="cls-40" d="m23.51,61.48l-4.51-1.97,1.05-2.39c.26-.6.5-1.02.7-1.26.2-.24.44-.39.72-.47.28-.07.55-.05.82.06.34.15.56.39.67.74.11.35.09.78-.07,1.3.22-.2.44-.34.64-.44.21-.1.55-.21,1.02-.33l1.18-.3-.59,1.36-1.34.39c-.48.14-.79.24-.92.31-.14.07-.25.15-.34.26-.09.11-.19.29-.3.55l-.1.23,1.88.82-.5,1.14h0Zm-2.1-2.28l.37-.84c.24-.55.37-.89.39-1.05.02-.15,0-.29-.05-.4-.06-.12-.15-.2-.29-.26-.15-.07-.3-.07-.43,0-.14.06-.26.18-.36.35-.05.09-.18.36-.38.82l-.39.89,1.14.5h0Z"/>
  <path class="cls-40" d="m34.65,44.91l1.03-.64c.21.25.45.4.72.43s.57-.04.9-.21c.35-.19.59-.38.71-.6.12-.21.13-.4.05-.56-.05-.1-.14-.17-.25-.2-.11-.03-.28-.03-.5.02-.15.03-.47.12-.98.27-.65.19-1.14.26-1.47.22-.46-.07-.78-.27-.96-.62-.12-.22-.15-.47-.09-.75s.21-.54.45-.8.57-.49.99-.71c.68-.36,1.26-.51,1.73-.45.47.06.82.29,1.05.68l-1.08.61c-.16-.2-.35-.31-.56-.33-.21-.02-.46.05-.77.22-.32.17-.54.35-.67.55-.08.13-.09.25-.03.36.05.1.15.16.3.18.19.02.57-.06,1.16-.23.59-.18,1.04-.28,1.35-.31.31-.03.59.02.83.13s.43.31.58.58c.13.25.17.53.11.84s-.22.6-.48.87-.63.53-1.1.78c-.69.36-1.29.51-1.79.45-.5-.06-.92-.32-1.24-.77h0Z"/>
  <path class="cls-40" d="m40.04,43.88l-1.48-4.69,4.35-1.37.25.79-3.16,1,.33,1.04,2.94-.93.25.79-2.94.93.4,1.28,3.28-1.04.25.79-4.46,1.41h-.01Z"/>
  <path class="cls-40" d="m44.86,42.4l-.61-4.88,2.59-.32c.65-.08,1.13-.1,1.44-.05.31.05.56.18.77.38s.33.45.36.74c.05.37-.05.69-.29.96s-.62.47-1.15.6c.28.09.52.2.71.33s.46.36.8.7l.86.86-1.47.18-1.02-.95c-.36-.34-.61-.55-.74-.64-.13-.08-.26-.14-.4-.16-.13-.02-.34,0-.63.02l-.25.03.25,2.04-1.23.15h.01Zm.88-2.97l.91-.11c.59-.07.96-.14,1.1-.2s.25-.14.32-.25.1-.24.08-.38c-.02-.16-.09-.29-.21-.38s-.29-.13-.49-.13c-.1,0-.4.03-.9.1l-.96.12.16,1.24h0Z"/>
  <path class="cls-40" d="m51.74,41.82l-1.95-5.02,1.34.07,1.37,3.71,1.69-3.56,1.31.07-2.44,4.8s-1.32-.07-1.32-.07Z"/>
  <path class="cls-40" d="m55.2,42.18l.82-4.85,1.22.21-.82,4.85-1.22-.21Z"/>
  <path class="cls-40" d="m61.4,41.89l1.06.65c-.33.46-.75.75-1.23.87-.49.12-1.04.09-1.68-.11-.78-.24-1.36-.65-1.73-1.23-.37-.58-.44-1.24-.21-1.98.24-.78.68-1.31,1.32-1.59s1.37-.29,2.19-.04c.72.22,1.25.57,1.6,1.05.21.28.32.63.33,1.05l-1.24-.14c0-.27-.08-.5-.26-.71-.18-.21-.42-.36-.74-.46-.43-.13-.83-.12-1.17.05-.35.17-.61.53-.78,1.09-.18.59-.18,1.06,0,1.39.19.33.5.57.92.7.32.1.61.1.89,0s.52-.29.72-.61h0Z"/>
  <path class="cls-40" d="m62.26,44.08l2.28-4.36,4.04,2.11-.39.74-2.94-1.54-.5.97,2.74,1.43-.38.73-2.74-1.43-.62,1.19,3.04,1.59-.38.73-4.14-2.17h-.01Z"/>
  <path class="cls-40" d="m74.67,54.25l4.08-2.74.66.98-4.08,2.74-.66-.98Z"/>
  <path class="cls-40" d="m75.67,55.61l4.39-2.21.52,1.03-1.85,3.62,2.93-1.48.49.98-4.39,2.21-.53-1.06,1.8-3.55-2.86,1.44-.49-.98h-.01Z"/>
  <path class="cls-40" d="m78.13,61.13l3.88-1.28-.54-1.65.79-.26,1.46,4.42-.79.26-.54-1.65-3.88,1.28-.37-1.12h0Z"/>
  <path class="cls-40" d="m79,63.64l4.85-.84.74,4.28-.82.14-.54-3.11-1.07.19.5,2.9-.82.14-.5-2.9-1.32.23.56,3.22-.82.14-.76-4.38h0Z"/>
  <path class="cls-40" d="m81.63,70.66h.83l.04,2.53-1.96.03c-.21-.24-.39-.6-.55-1.07s-.25-.94-.25-1.42c-.01-.61.09-1.15.3-1.61.21-.46.51-.81.91-1.04.4-.24.83-.36,1.3-.36.51,0,.97.11,1.37.36s.71.62.93,1.11c.17.37.26.84.27,1.4.01.73-.11,1.3-.36,1.71-.25.41-.6.68-1.05.81l-.2-1.17c.24-.09.43-.24.56-.47.14-.23.2-.51.2-.86,0-.52-.15-.92-.43-1.23-.28-.3-.69-.45-1.23-.44-.58,0-1.02.17-1.31.48-.29.31-.43.72-.42,1.22,0,.25.05.49.13.74.09.25.19.46.31.64h.62l-.02-1.36h0Z"/>
  <path class="cls-40" d="m79.82,73.45l4.84.85-.43,2.45c-.11.62-.23,1.06-.37,1.32s-.33.46-.58.59-.52.17-.81.12c-.36-.06-.64-.24-.83-.54s-.27-.7-.25-1.22c-.17.23-.34.41-.52.55s-.48.31-.9.52l-1.07.54.24-1.39,1.2-.66c.43-.23.7-.39.82-.49.12-.09.21-.2.26-.31.06-.12.11-.31.16-.58l.04-.24-2.02-.36.21-1.16h0Zm2.59,1.66l-.15.86c-.1.56-.14.91-.13,1.06.02.15.06.27.15.36.08.1.2.16.34.18.16.03.3,0,.42-.09.12-.09.21-.22.27-.4.03-.09.08-.37.17-.85l.16-.91-1.23-.22h0Z"/>
  <path class="cls-40" d="m78.73,78.67l4.7,1.45-.35,1.13-4.7-1.45.35-1.13Z"/>
  <path class="cls-40" d="m77.81,81.41l3.77,1.58.67-1.6.77.32-1.8,4.29-.77-.32.67-1.6-3.77-1.58s.46-1.09.46-1.09Z"/>
  <path class="cls-40" d="m75.84,85.38l1.76,1.09,3.55-.32-.73,1.18-2.38.15.94,2.17-.72,1.16-1.29-3.33-1.75-1.09.62-1h0Z"/>
  <path class="cls-40" d="m32.91,99.37l2.36-4.27,1.09.6-1.96,3.54,2.7,1.49-.4.73s-3.79-2.09-3.79-2.09Z"/>
  <path class="cls-40" d="m37.79,99.34c.17-.47.39-.84.68-1.1.22-.19.47-.34.76-.45s.59-.16.9-.15c.4,0,.84.09,1.31.26.85.3,1.46.75,1.83,1.36.36.6.41,1.28.15,2.04-.26.75-.72,1.25-1.38,1.49s-1.41.22-2.27-.08-1.47-.75-1.84-1.35c-.36-.6-.41-1.27-.15-2.01h0Zm1.22.39c-.18.52-.17.98.03,1.35.21.38.55.65,1.01.81.47.16.9.16,1.29,0s.69-.51.87-1.05c.19-.53.18-.98-.02-1.34-.2-.36-.54-.63-1.02-.8-.48-.17-.92-.17-1.31-.01-.39.16-.68.51-.86,1.04h.01Z"/>
  <path class="cls-40" d="m45.17,103.96l.31-2.05-1.79-3.16,1.44.22,1.14,2.14,1.7-1.71,1.41.22-2.67,2.48-.31,2.04-1.22-.19h0Z"/>
  <path class="cls-40" d="m53.99,104.56l-1.35-.02-.52-1.13-2.46-.04-.53,1.11-1.32-.02,2.48-4.88,1.31.02,2.38,4.96h0Zm-2.26-1.98l-.82-1.84-.86,1.81,1.68.03Z"/>
  <path class="cls-40" d="m54.94,104.32l-.85-4.8,1.22-.22.71,3.99,3.04-.54.14.82-4.26.76h0Z"/>
  <path class="cls-40" d="m60.46,103.16l-1.22-3.9-1.74.55-.25-.79,4.66-1.46.25.79-1.74.55,1.22,3.9-1.18.37h0Z"/>
  <path class="cls-40" d="m66.44,100.8l-.98-1.82-3.33-1.44,1.28-.69,2.2,1.03.32-2.38,1.26-.68-.63,3.59.98,1.82-1.09.59v-.02Z"/>
  <g>
    <g class="cls-59">
      <g class="cls-56">
        <path class="cls-53" d="m73.2,70.73c0,12.29-9.96,22.25-22.25,22.25s-22.25-9.96-22.25-22.25,9.96-22.25,22.25-22.25,22.25,9.96,22.25,22.25"/>
      </g>
    </g>
    <path class="cls-40" d="m74.94,70.73c0,13.25-10.74,24-24,24s-24-10.74-24-24,10.74-24,24-24,24,10.74,24,24"/>
    <path class="cls-20" d="m67.63,70.73c0,9.21-7.47,16.68-16.68,16.68s-16.68-7.47-16.68-16.68,7.47-16.68,16.68-16.68,16.68,7.47,16.68,16.68"/>
    <path class="cls-16" d="m65.67,70.73c0,8.13-6.59,14.72-14.72,14.72s-14.72-6.59-14.72-14.72,6.59-14.72,14.72-14.72,14.72,6.59,14.72,14.72"/>
    <path class="cls-53" d="m61.67,70.73c0,5.92-4.8,10.72-10.72,10.72s-10.72-4.8-10.72-10.72,4.8-10.72,10.72-10.72,10.72,4.8,10.72,10.72"/>
  </g>
  <g class="cls-57">
    <path class="cls-40" d="m64.42,70.73c0,7.44-6.03,13.47-13.47,13.47s-13.47-6.03-13.47-13.47,6.03-13.47,13.47-13.47,13.47,6.03,13.47,13.47"/>
  </g>
  <g>
    <path class="cls-33" d="m61.67,70.73c0,5.92-4.8,10.72-10.72,10.72s-10.72-4.8-10.72-10.72,4.8-10.72,10.72-10.72,10.72,4.8,10.72,10.72"/>
    <polygon class="cls-40" points="61.86 75.64 50.04 70.77 61.85 65.91 61.86 75.64"/>
    <path class="cls-41" d="m56.31,70.73c0,2.96-2.4,5.36-5.36,5.36s-5.36-2.4-5.36-5.36,2.4-5.36,5.36-5.36,5.36,2.4,5.36,5.36"/>
    <path class="cls-24" d="m85.74,112.94c8.25-6.48,16.15-14.13,16.15-14.13V16.19s-5.16-4.21-12.44-7.71C84.05,5.88,69.94,0,50.94,0S17.83,5.88,12.43,8.48C5.16,11.98,0,16.19,0,16.19v82.61s7.91,7.65,16.15,14.13c6.67,5.25,16.24,11.81,25.59,16.05,3.19,1.45,8.34,3.35,9.21,3.35s6.02-1.91,9.21-3.35c9.34-4.24,18.91-10.81,25.59-16.05m-34.79,16.3c-1.31-.35-5.15-1.76-7.94-3.03-10.72-4.86-21.03-12.58-24.96-15.67-6.4-5.03-12.67-10.85-14.98-13.03V17.7c1.84-1.36,5.78-4.1,10.7-6.47,6.34-3.05,19.6-8.18,37.18-8.18s30.84,5.12,37.18,8.18c4.92,2.37,8.86,5.11,10.7,6.47v79.79c-2.31,2.18-8.58,8.01-14.98,13.03-3.93,3.09-14.24,10.81-24.96,15.67-2.79,1.27-6.63,2.68-7.94,3.03"/>
  </g>
  <path class="cls-40" d="m16.19,19.96l1-.14c.17.62.17,1.14.02,1.56-.15.43-.46.76-.92,1.01-.57.31-1.15.33-1.76.07-.61-.26-1.13-.78-1.55-1.57-.45-.83-.62-1.58-.5-2.24s.48-1.15,1.07-1.47c.52-.28,1.04-.33,1.56-.14.31.11.62.34.94.69l-.72.7c-.19-.23-.41-.38-.65-.45-.24-.06-.48-.03-.7.09-.32.17-.5.44-.55.82-.05.37.08.86.4,1.46.34.63.68,1.03,1.02,1.2.34.16.66.16.97,0,.23-.12.38-.32.45-.58s.05-.59-.08-1h0Z"/>
  <path class="cls-40" d="m17.23,18.67c-.23-.53-.36-1.01-.39-1.43-.02-.31.02-.61.1-.9.08-.29.2-.53.36-.72.22-.26.5-.47.87-.63.65-.29,1.28-.28,1.88.02.6.3,1.09.88,1.47,1.73.37.84.47,1.59.29,2.23-.18.65-.59,1.11-1.24,1.4-.66.29-1.29.29-1.88-.01-.6-.3-1.08-.87-1.45-1.7h-.01Zm.91-.44c.26.59.57.99.94,1.19s.73.22,1.08.07c.36-.16.58-.44.68-.84.09-.4,0-.91-.26-1.51s-.57-.99-.92-1.19-.71-.21-1.08-.05-.6.44-.69.84,0,.9.26,1.5h-.01Z"/>
  <path class="cls-40" d="m23.13,19.12l-1.96-5.3.92-.34,1.63,4.4,2.28-.85.33.9s-3.2,1.19-3.2,1.19Z"/>
  <path class="cls-40" d="m25.74,15.12c-.17-.55-.24-1.04-.22-1.46.02-.31.09-.6.2-.88.11-.28.26-.5.45-.67.24-.23.56-.41.93-.52.68-.21,1.3-.13,1.87.25.56.37.98,1,1.25,1.89.27.88.28,1.63.02,2.25-.25.62-.72,1.04-1.4,1.24-.69.21-1.31.13-1.87-.24-.56-.37-.97-.99-1.23-1.86Zm.95-.33c.19.62.45,1.05.79,1.29.34.24.69.31,1.07.2.37-.11.63-.36.77-.75.14-.39.12-.9-.08-1.53-.19-.62-.45-1.05-.77-1.29-.33-.24-.68-.3-1.07-.18-.38.12-.65.37-.79.75-.14.38-.12.89.08,1.52h0Z"/>
  <path class="cls-40" d="m31.58,16.36l-1.32-5.54,2-.48c.5-.12.88-.16,1.13-.11s.48.18.67.4c.2.22.34.5.41.82.1.42.08.78-.07,1.1-.14.32-.41.57-.81.73.24.09.45.21.62.34.17.14.42.39.75.77l.83.95-1.14.27-.97-1.04c-.35-.37-.58-.6-.69-.7s-.23-.15-.34-.16c-.11-.02-.28,0-.49.05l-.19.05.55,2.31-.95.23h.01Zm.19-3.43l.7-.17c.46-.11.74-.2.84-.27.1-.07.17-.17.21-.3s.04-.27,0-.44c-.04-.19-.12-.33-.23-.42s-.25-.14-.41-.13c-.08,0-.31.05-.7.15l-.74.18.33,1.41h0Z"/>
  <path class="cls-40" d="m40.37,14.55l-1.05.18-.64-1.2-1.91.33-.17,1.34-1.02.18.88-5.94,1.02-.18,2.89,5.28h0Zm-2.16-1.91l-1.02-1.97-.28,2.2,1.3-.23Z"/>
  <path class="cls-40" d="m40,8.85l1.78-.2c.4-.04.71-.04.93,0,.29.07.55.21.78.44s.42.52.56.87c.15.35.25.79.31,1.32.05.47.05.87,0,1.22-.07.42-.21.78-.4,1.06-.15.21-.36.39-.63.53-.21.1-.49.18-.85.22l-1.83.2-.63-5.66h0Zm1.08.85l.42,3.75.72-.08c.27-.03.47-.07.58-.12.15-.06.27-.16.37-.28.09-.12.16-.31.19-.58.04-.26.03-.61-.02-1.05-.05-.44-.12-.77-.21-1-.09-.23-.2-.4-.34-.52-.13-.12-.29-.19-.48-.22-.14-.02-.41,0-.8.04l-.44.05h0Z"/>
  <path class="cls-40" d="m44.96,11.23c-.03-.58.02-1.07.15-1.47.1-.29.23-.56.41-.8s.38-.42.6-.54c.29-.16.64-.26,1.03-.27.71-.03,1.29.2,1.75.7.45.5.7,1.21.75,2.14.04.92-.13,1.65-.54,2.19-.4.54-.95.83-1.67.86-.72.03-1.3-.2-1.75-.69-.45-.5-.7-1.2-.74-2.1v-.02Zm1-.09c.03.64.18,1.13.45,1.45s.6.47.99.45c.39-.02.7-.2.93-.54.23-.34.34-.84.3-1.5-.03-.65-.18-1.13-.43-1.44-.26-.31-.59-.45-.99-.44-.4.02-.72.2-.95.53-.23.34-.33.83-.3,1.49Z"/>
  <path class="cls-40" d="m52.19,8.2l1.78.07c.4.02.71.06.92.14.28.11.52.29.71.55s.34.57.43.94.13.82.11,1.35c-.02.47-.08.87-.2,1.21-.14.41-.32.74-.56.99-.18.19-.41.33-.7.43-.22.07-.51.1-.87.09l-1.84-.07.22-5.69h0Zm.94,1l-.15,3.77.73.03c.27.01.47,0,.59-.03.16-.04.29-.11.4-.22s.2-.29.28-.54c.08-.25.12-.6.14-1.04s0-.78-.06-1.02-.14-.43-.26-.56c-.11-.14-.26-.23-.44-.29-.14-.04-.4-.07-.8-.09l-.44-.02h0Z"/>
  <path class="cls-40" d="m56.5,14.09l.46-5.68.97.08-.46,5.68-.97-.08Z"/>
  <path class="cls-40" d="m59.45,14.34l-1.03-5.87,1.05.13.71,4.33,1.69-4.04,1.03.12-2.41,5.45-1.04-.13h0Z"/>
  <path class="cls-40" d="m62.5,14.78l.91-5.63.96.16-.91,5.63s-.96-.16-.96-.16Z"/>
  <path class="cls-40" d="m64.23,13.16l.95.08c-.02.38.04.67.18.88s.35.34.64.4c.31.06.56.03.75-.09s.3-.29.34-.49c.03-.13.02-.25-.03-.36-.05-.11-.14-.21-.3-.31-.1-.07-.34-.2-.72-.4-.48-.25-.81-.51-.97-.77-.23-.37-.3-.77-.21-1.21.06-.28.18-.54.37-.76s.42-.37.71-.45c.28-.08.61-.08.97,0,.6.12,1.01.36,1.25.73s.31.81.23,1.33l-.97-.14c.02-.3-.03-.52-.14-.67-.11-.15-.3-.26-.57-.31-.28-.06-.51-.03-.7.07-.12.07-.19.17-.22.32-.03.13,0,.25.07.37.1.14.37.33.81.55.44.22.76.43.95.61.2.18.33.41.41.67.08.27.08.58.01.93-.06.32-.2.6-.41.85-.21.25-.46.41-.77.49-.3.08-.66.08-1.08,0-.6-.12-1.03-.38-1.29-.77-.25-.39-.35-.91-.29-1.54h.03Z"/>
  <path class="cls-40" d="m68.33,15.91l1.34-5.54.95.23-1.34,5.54-.95-.23Z"/>
  <path class="cls-40" d="m70.6,13.49c.16-.56.37-1.01.62-1.34.19-.25.4-.46.65-.63s.49-.28.75-.32c.33-.06.68-.04,1.06.07.69.2,1.16.61,1.43,1.23s.27,1.37.01,2.27c-.26.88-.66,1.52-1.21,1.9-.55.38-1.17.47-1.85.28-.69-.2-1.17-.61-1.44-1.22-.26-.61-.27-1.36-.02-2.23h0Zm.98.24c-.18.62-.19,1.12-.04,1.51s.41.64.79.75c.37.11.73.04,1.06-.21.33-.25.59-.69.77-1.32s.2-1.13.05-1.5c-.14-.38-.41-.62-.8-.73s-.74-.05-1.07.2c-.33.24-.58.68-.77,1.31h.01Z"/>
  <path class="cls-40" d="m74.74,17.71l1.93-5.36.9.32.58,4.25,1.29-3.58.85.31-1.93,5.36-.92-.33-.58-4.16-1.26,3.5-.85-.31h-.01Z"/>
  <path class="cls-40" d="m81.65,17.27c.24-.53.52-.94.82-1.23.22-.22.47-.39.74-.52.27-.13.53-.2.78-.2.34,0,.68.07,1.04.24.65.3,1.05.78,1.22,1.43s.06,1.4-.34,2.24c-.39.83-.88,1.4-1.49,1.69s-1.23.29-1.87-.01c-.65-.3-1.06-.78-1.23-1.43-.17-.65-.06-1.38.32-2.21h.01Zm.93.39c-.27.58-.36,1.08-.27,1.49.09.41.31.7.66.86.35.16.71.15,1.08-.04s.69-.59.97-1.19c.28-.59.37-1.09.29-1.48-.09-.39-.31-.68-.68-.85s-.73-.16-1.09.03c-.36.19-.68.58-.96,1.18h0Z"/>
  <path class="cls-40" d="m85.22,22.08l2.77-4.98,2.9,1.62-.47.84-2.05-1.14-.66,1.18,1.77.98-.47.84-1.77-.98-1.18,2.12-.85-.48h.01Z"/>
  <path class="cls-40" d="m10.63,35.06l-3.4-4.57,2.44-1.81.58.77-1.72,1.28.8,1.08,1.48-1.1.58.77-1.48,1.1,1.44,1.94-.72.53h0Z"/>
  <path class="cls-40" d="m13.53,33.02l-3.21-4.71.74-.5,3.21,4.71-.74.5Z"/>
  <path class="cls-40" d="m14.73,32.1l-2.97-4.86,1.61-.98c.4-.25.72-.38.96-.41.24-.02.48.04.72.2.25.16.46.38.63.67.22.36.32.72.3,1.06-.02.34-.18.64-.47.91.24.02.46.08.66.16.2.08.5.26.92.52l1.04.67-.91.56-1.2-.72c-.43-.26-.71-.41-.84-.47-.13-.05-.25-.08-.35-.06-.1,0-.24.07-.42.18l-.16.09,1.24,2.03-.76.47v-.02Zm-.95-3.27l.56-.35c.37-.22.58-.38.65-.48s.1-.21.09-.34c0-.13-.06-.27-.15-.41-.1-.16-.22-.27-.35-.33s-.26-.06-.4-.01c-.07.03-.26.13-.57.32l-.6.36.76,1.23h0Z"/>
  <path class="cls-40" d="m18.38,29.93l-2.61-5.07,2.92-1.5.44.86-2.13,1.09.58,1.12,1.98-1.02.44.85-1.98,1.02.71,1.38,2.2-1.13.44.85-3,1.54h0Z"/>
  <path class="cls-40" d="m23.23,27.6l-2.17-5.27,1.33-.55c.5-.21.84-.32,1.02-.33.27-.02.53.07.8.27.27.2.49.51.66.93.13.32.2.61.2.87s-.04.48-.13.66c-.09.18-.2.33-.33.43-.18.13-.45.28-.83.43l-.54.22.82,1.99-.83.34h0Zm-.98-4.72l.62,1.49.45-.19c.33-.13.53-.25.62-.35s.14-.22.15-.36c.01-.14-.01-.29-.08-.45-.08-.19-.19-.33-.33-.42s-.28-.12-.43-.1c-.11.02-.31.09-.61.21l-.4.16h0Z"/>
  <path class="cls-40" d="m26.84,26.06l-1.86-5.39,1.78-.61c.45-.15.79-.22,1.03-.19.24.03.46.14.67.35s.37.47.48.79c.14.4.16.77.07,1.1s-.31.59-.66.78c.23.07.43.17.61.3.18.12.44.36.78.71l.88.87-1.01.35-1.02-.96c-.36-.34-.6-.56-.72-.64-.12-.08-.23-.13-.33-.14-.1,0-.25.02-.45.09l-.17.06.78,2.25-.85.29h-.01Zm-.23-3.4l.63-.22c.41-.14.65-.25.74-.33s.14-.18.16-.31,0-.27-.05-.43c-.06-.18-.15-.31-.26-.4s-.24-.12-.39-.1c-.07.01-.28.08-.62.19l-.66.23.47,1.37h-.02Z"/>
  <path class="cls-40" d="m30.84,24.77l-1.54-5.49,3.16-.89.26.93-2.3.65.34,1.22,2.14-.6.26.92-2.14.6.42,1.49,2.38-.67.26.92-3.24.91h0Z"/>
  <path class="cls-40" d="m35.71,23.4l-2.78-5.22.95-.21,2.01,3.87.15-4.35.93-.21-.31,5.91-.93.21h-.02Z"/>
  <path class="cls-40" d="m38.44,22.87l-.92-5.62,3.24-.53.16.95-2.36.39.2,1.25,2.2-.36.15.95-2.2.36.25,1.53,2.44-.4.16.95-3.33.54h0Z"/>
  <path class="cls-40" d="m42.22,22.26l-.59-5.67.87-.09,2.2,3.6-.39-3.79.83-.09.59,5.67-.89.09-2.16-3.51.38,3.7-.83.09h-.01Z"/>
  <path class="cls-40" d="m47.48,21.79l-.22-4.73-1.31.06-.04-.96,3.52-.16.04.96-1.31.06.22,4.73-.89.04h0Z"/>
  <path class="cls-40" d="m50.02,21.68l-.04-5.7h.89l.04,5.69h-.89Z"/>
  <path class="cls-40" d="m51.41,18.8c.02-.58.11-1.06.26-1.45.11-.29.26-.54.44-.77.18-.22.38-.39.59-.49.28-.14.6-.2.96-.19.65.02,1.17.3,1.54.84.37.53.54,1.27.51,2.19-.03.92-.26,1.63-.66,2.14-.41.51-.94.75-1.59.72-.66-.02-1.17-.3-1.54-.83-.37-.53-.54-1.25-.5-2.16h0Zm.92,0c-.02.64.07,1.14.29,1.48s.51.52.86.53c.36.01.66-.14.9-.46s.37-.81.4-1.47c.02-.65-.07-1.14-.28-1.47s-.5-.5-.87-.51-.67.14-.91.45c-.24.32-.37.8-.39,1.46h0Z"/>
  <path class="cls-40" d="m56.14,21.86l.58-5.67.87.09,1.42,3.97.38-3.79.83.08-.58,5.67-.89-.09-1.4-3.88-.38,3.7s-.83-.08-.83-.08Z"/>
  <path class="cls-40" d="m65.83,22.59l-.66.73c-.22-.2-.42-.46-.59-.78-.22.17-.43.29-.65.35s-.46.06-.74.01c-.54-.1-.91-.37-1.11-.82-.16-.34-.2-.71-.12-1.11.07-.36.21-.67.43-.92s.52-.46.89-.61c-.11-.25-.18-.49-.21-.71-.04-.22-.04-.42,0-.6.06-.34.22-.61.48-.8.25-.2.58-.26.97-.18.38.07.65.25.81.54.17.29.22.61.15.96-.04.23-.14.43-.28.62-.15.18-.4.37-.77.57l.41,1.14c.1-.15.2-.35.3-.6l.71.36c-.14.33-.25.57-.34.72s-.17.27-.25.37c.07.13.17.27.29.44.12.16.22.27.28.33h0Zm-2.25-2.37c-.21.09-.39.21-.51.37-.13.16-.21.33-.24.51-.04.23-.02.43.07.6s.23.27.43.31c.13.02.26.02.39-.03.13-.04.29-.13.46-.25l-.6-1.51Zm.55-1.1l.27-.18c.2-.13.31-.28.34-.45.03-.14,0-.26-.05-.37-.06-.11-.16-.18-.3-.21-.13-.03-.24,0-.33.07-.09.07-.15.16-.17.27-.02.13,0,.31.1.52l.15.34h0Z"/>
  <path class="cls-40" d="m70.8,22.4l.74.57c-.29.56-.63.95-1.01,1.16-.38.21-.8.25-1.25.12-.57-.16-.96-.53-1.19-1.13-.23-.6-.22-1.33.01-2.2.25-.91.63-1.57,1.14-1.98s1.06-.53,1.66-.36c.52.14.89.46,1.11.95.13.29.18.67.16,1.13l-.93.03c.03-.3-.02-.55-.13-.76-.11-.21-.29-.35-.52-.41-.32-.09-.61-.01-.89.23s-.51.68-.69,1.34c-.19.7-.23,1.22-.12,1.56.11.35.32.57.64.65.23.06.45.02.67-.12.22-.14.42-.4.6-.79h0Z"/>
  <path class="cls-40" d="m72.33,22.12c.19-.55.41-.99.67-1.32.19-.24.41-.44.64-.6.24-.16.48-.26.71-.3.31-.05.64-.02.98.1.62.21,1.03.63,1.23,1.25.2.62.15,1.37-.15,2.25-.3.87-.72,1.49-1.25,1.85-.54.36-1.11.44-1.73.23-.62-.21-1.03-.63-1.23-1.24-.2-.62-.15-1.35.14-2.21h0Zm.89.26c-.21.61-.26,1.11-.15,1.5s.34.64.67.76c.34.12.67.05.99-.18.32-.24.59-.67.81-1.29.21-.62.27-1.11.16-1.49-.11-.38-.34-.62-.68-.74-.35-.12-.68-.06-1,.17s-.59.66-.8,1.28h0Z"/>
  <path class="cls-40" d="m75.85,26.31l2.19-5.26.8.34.21,4.21,1.46-3.51.77.32-2.19,5.26-.83-.35-.22-4.12-1.43,3.43-.77-.32h.01Z"/>
  <path class="cls-40" d="m80.7,28.48l2.08-4.25-1.18-.58.42-.87,3.16,1.55-.42.87-1.18-.58-2.08,4.25-.8-.39Z"/>
  <path class="cls-40" d="m83,29.54l2.84-4.94,1.63.94c.41.24.68.45.82.65.14.2.19.44.17.73-.02.29-.11.58-.28.88-.21.37-.47.63-.78.77-.31.14-.65.15-1.02.02.1.22.15.44.18.65.02.21.02.56-.02,1.06l-.09,1.23-.93-.53.06-1.4c.02-.5.03-.82,0-.96-.02-.14-.05-.26-.12-.34-.06-.08-.18-.18-.36-.28l-.16-.09-1.19,2.06-.78-.45h.03Zm2.42-2.4l.57.33c.37.21.62.33.73.34.12.01.23-.01.34-.08.11-.07.21-.18.29-.33.1-.17.14-.32.13-.46s-.07-.26-.18-.36c-.06-.05-.24-.16-.56-.34l-.61-.35-.72,1.25h.01Z"/>
  <path class="cls-40" d="m88.06,29.29c.33-.48.66-.84.99-1.09.25-.18.51-.32.78-.41s.53-.13.76-.1c.31.03.62.15.92.35.54.37.82.88.85,1.53.03.65-.22,1.36-.74,2.13-.52.76-1.09,1.24-1.7,1.45s-1.19.13-1.73-.24c-.54-.37-.83-.88-.86-1.53-.03-.65.21-1.34.72-2.09h.01Zm.78.49c-.36.53-.54,1-.54,1.41s.15.71.45.91c.29.2.63.23,1.01.09.37-.14.75-.49,1.12-1.03.37-.54.55-1,.55-1.4s-.16-.69-.46-.9c-.3-.21-.64-.24-1.01-.1-.37.14-.74.48-1.11,1.02h-.01Z"/>
  <path class="cls-40" d="m90.38,34.33l3.48-4.45.71.55-2.89,3.69,1.75,1.37-.59.76s-2.46-1.92-2.46-1.92Z"/>
  <path class="cls-16" d="m28.92,65.64l.58-1.77c.13-.4.26-.69.38-.89.16-.26.37-.46.62-.6s.52-.22.82-.24.65.04,1.04.17c.34.11.62.26.84.44.26.22.45.47.57.75.09.21.12.48.11.79,0,.23-.08.53-.19.88l-.6,1.82-4.16-1.37v.02Zm1.02-.74l2.76.9.24-.72c.09-.27.14-.47.15-.6.02-.17,0-.32-.04-.45-.05-.13-.15-.26-.32-.39s-.41-.24-.73-.35-.58-.15-.77-.15-.36.06-.5.14c-.14.09-.25.21-.34.38-.07.13-.17.39-.3.78l-.14.43v.03Z"/>
  <path class="cls-16" d="m34.51,63.01l-3.75-2.26,1.93-3.2.63.38-1.4,2.33.83.5,1.31-2.17.63.38-1.31,2.17,1.02.62,1.45-2.41.63.38-1.98,3.28h0Z"/>
  <path class="cls-16" d="m36.67,59.45l-3.15-3.05,1.14-1.17c.43-.44.73-.72.89-.82.25-.16.52-.24.81-.22.29,0,.57.14.82.38.19.19.32.39.37.59.05.21.06.41,0,.61-.05.2-.12.37-.22.52-.14.2-.37.47-.69.8l-.46.48,1.19,1.15s-.71.73-.71.73Zm-1.9-3.27l.89.87.39-.4c.28-.29.45-.5.51-.63s.08-.25.07-.38c-.02-.12-.07-.23-.16-.32-.11-.11-.25-.16-.4-.16s-.29.06-.42.16c-.1.07-.28.24-.53.51l-.34.35h0Z"/>
  <path class="cls-16" d="m42.5,54.54l-.9.64-.94-.56-1.64,1.17.24,1.05-.88.63-.94-4.71.88-.62,4.19,2.4h-.01Zm-2.53-.32l-1.51-.92.39,1.72s1.12-.8,1.12-.8Z"/>
  <path class="cls-16" d="m42.39,54.62l-1.61-4.08,1.99-.79c.5-.2.88-.31,1.14-.32.26-.02.49.04.7.17.21.13.36.32.46.56.12.31.12.6,0,.88-.13.28-.39.53-.78.74.25.02.46.07.64.14s.45.22.8.45l.89.57-1.13.45-1.04-.62c-.37-.22-.61-.35-.74-.4-.12-.05-.24-.07-.35-.06-.11,0-.28.06-.5.14l-.19.08.67,1.7-.95.37v.02Zm.02-2.73l.7-.28c.45-.18.73-.31.83-.39.1-.08.17-.17.2-.28.03-.11.02-.22-.02-.34-.05-.14-.14-.23-.26-.28s-.26-.06-.42-.02c-.08.02-.31.11-.7.26l-.74.29.41,1.03h0Z"/>
  <path class="cls-16" d="m47.27,53.06l-.64-3.59-1.47.26-.13-.73,3.94-.7.13.73-1.47.26.64,3.59s-1,.18-1,.18Z"/>
  <path class="cls-16" d="m49.46,52.54l.21-4.38,1.52.07.77,3.03,1.05-2.94,1.53.07-.21,4.38-.95-.05.17-3.45-1.17,3.4-.98-.05-.83-3.5-.17,3.45-.94-.05v.02Z"/>
  <path class="cls-16" d="m54.6,52.94l1.3-4.19,3.57,1.11-.22.71-2.6-.81-.29.93,2.42.75-.22.71-2.42-.75-.35,1.14,2.69.84-.22.71-3.66-1.14h0Z"/>
  <path class="cls-16" d="m58.38,54.16l2.23-3.77.85.5.29,3.57,1.49-2.52.82.48-2.23,3.77-.88-.52-.3-3.5-1.45,2.46-.81-.48h-.01Z"/>
  <path class="cls-16" d="m62.66,56.9l2.43-2.71-1.11-1,.5-.55,2.98,2.68-.5.55-1.11-1-2.43,2.71-.76-.68Z"/>
  <path class="cls-16" d="m67.12,58.35c.38-.23.75-.35,1.08-.38.25-.02.5.02.76.09.25.08.48.2.67.36.26.21.49.49.7.84.38.64.51,1.25.4,1.84-.12.59-.48,1.07-1.09,1.43-.61.36-1.2.45-1.77.28-.57-.18-1.04-.58-1.42-1.22s-.52-1.26-.4-1.84c.11-.58.47-1.05,1.07-1.41h0Zm.56.89c-.43.25-.68.56-.77.92-.09.36-.03.71.18,1.06s.49.57.84.66c.35.09.75.01,1.18-.25s.69-.56.77-.9c.08-.34.02-.7-.2-1.06-.21-.36-.49-.59-.84-.68s-.74,0-1.17.25h0Z"/>
  <path class="cls-16" d="m67.73,63.77l4.18-1.31,1.04,3.3-.71.22-.73-2.33-.99.31.63,2.01-.71.22-.63-2.01-1.78.56-.31-.97h0Z"/>
  <path class="cls-16" d="m28.9,75.56l4.19-1.3.51,1.64c.19.62.3,1.03.32,1.24.03.31-.03.59-.18.86-.15.26-.39.44-.72.55-.26.08-.49.09-.7.03s-.39-.16-.55-.3c-.15-.14-.28-.3-.36-.47-.12-.23-.25-.58-.39-1.04l-.21-.67-1.58.49-.32-1.02h0Zm3.8-.06l-1.19.37.17.56c.13.4.23.67.32.79s.19.21.3.26c.12.05.24.05.36.01.15-.05.26-.14.33-.28.07-.14.09-.3.06-.47-.02-.13-.09-.38-.2-.74l-.15-.49h0Z"/>
  <path class="cls-16" d="m34.4,78.27l.56.91-2.03,1.23c-.32.2-.52.33-.61.41-.13.13-.2.3-.2.5s.07.43.23.69.32.43.49.51c.17.08.32.09.47.04.14-.05.36-.17.66-.35l2.07-1.26.56.92-1.97,1.2c-.45.27-.78.44-1,.5s-.43.07-.64.01-.42-.17-.63-.35c-.21-.18-.43-.44-.64-.8-.26-.43-.42-.79-.48-1.06-.05-.27-.05-.52,0-.73.05-.21.14-.38.26-.51.18-.19.48-.41.9-.67l2-1.22v.03Z"/>
  <path class="cls-16" d="m36.69,82.09l1.51,1.49c.3.29.51.52.64.69.13.17.22.34.27.52s.06.36.03.55c-.03.18-.11.34-.24.48-.14.15-.32.23-.54.26s-.44,0-.66-.11c.17.28.26.55.25.81,0,.25-.1.47-.28.65-.14.14-.32.24-.53.3-.21.05-.43.05-.64,0s-.44-.18-.66-.36c-.14-.11-.45-.41-.94-.89l-1.28-1.27,3.08-3.12h0Zm-.98,2.51l-.82.83.71.7c.28.27.46.44.54.5.13.1.26.14.4.15.14,0,.26-.05.37-.16.09-.09.14-.2.15-.32,0-.12-.02-.25-.1-.38-.07-.13-.29-.37-.63-.71,0,0-.62-.61-.62-.61Zm1.23-1.24l-.71.72.5.49c.3.29.48.47.56.54.14.12.28.18.42.19s.25-.03.35-.13.14-.21.14-.33-.06-.26-.18-.39c-.07-.08-.28-.3-.64-.65l-.44-.43h0Z"/>
  <path class="cls-16" d="m37.74,88.9l2.29-3.7.91.56-1.9,3.07,2.26,1.4-.39.63-3.17-1.97h0Z"/>
  <path class="cls-16" d="m41.33,91.02l1.79-4,.98.44-1.79,4-.98-.44Z"/>
  <path class="cls-16" d="m47,91.21l.94.52c-.27.42-.61.7-1.03.84-.42.13-.9.13-1.45,0-.68-.17-1.19-.51-1.54-1s-.43-1.08-.26-1.75c.18-.71.54-1.2,1.08-1.48.54-.28,1.17-.33,1.89-.15.63.16,1.1.44,1.42.85.19.24.3.55.33.92l-1.08-.06c0-.24-.09-.44-.25-.62s-.38-.3-.65-.37c-.38-.1-.72-.06-1.02.1-.29.17-.5.5-.63,1.01-.14.54-.12.95.06,1.24s.45.48.82.57c.28.07.53.06.77-.04.24-.09.44-.29.6-.58h0Z"/>
  <path class="cls-16" d="m50.81,91.89l1.03-.18c.09.28.24.48.44.6.2.12.47.16.79.13.34-.03.6-.12.76-.25.16-.14.24-.29.22-.45,0-.1-.05-.19-.14-.25-.08-.07-.21-.12-.4-.15-.13-.02-.42-.06-.87-.11-.58-.06-1-.17-1.24-.32-.35-.21-.54-.49-.57-.83-.02-.22.04-.44.17-.65.13-.21.34-.38.62-.51.28-.13.62-.21,1.02-.25.66-.06,1.17,0,1.53.22.36.21.57.51.62.91l-1.06.14c-.07-.22-.18-.37-.34-.46-.16-.08-.39-.11-.69-.08-.31.03-.55.11-.71.23-.11.08-.15.17-.14.29,0,.1.07.19.18.25.14.08.48.15,1.01.2.53.05.92.12,1.18.2.26.08.47.21.63.39.16.17.25.4.28.68.02.25-.04.49-.18.73-.15.23-.37.42-.67.56s-.68.23-1.13.27c-.67.06-1.19-.01-1.57-.23s-.63-.57-.75-1.05l-.02-.03Z"/>
  <path class="cls-16" d="m60.52,91.24l-1.11.36-.75-.8-2.01.66-.1,1.08-1.08.35.59-4.81,1.08-.35,3.39,3.5h-.01Zm-2.41-1.03l-1.2-1.32-.17,1.77,1.37-.45Z"/>
  <path class="cls-16" d="m60.97,90.93l-2.24-3.77,3.13-1.86.38.64-2.2,1.31.53.89,1.9-1.13.38.64-1.9,1.13.95,1.6-.92.55h-.01Z"/>
  <path class="cls-16" d="m65,88.4l-3.01-3.18,2.85-2.7.51.54-2.08,1.97.67.71,1.93-1.83.51.54-1.93,1.83.82.87,2.15-2.04.51.54-2.93,2.77v-.02Z"/>
  <path class="cls-16" d="m69.53,83.37l-3.05-1.98-.86,1.32-.62-.4,2.3-3.53.62.4-.86,1.32,3.05,1.98-.58.9h0Z"/>
  <path class="cls-16" d="m72.08,78.4l-1.75-.58-3.02,1.04.4-1.19,2.04-.63-1.26-1.71.39-1.17,1.8,2.66,1.74.58-.34,1.01h0Z"/>
  <g>
    <path class="cls-16" d="m71.74,70.39c0,.69-.56,1.24-1.24,1.24s-1.24-.56-1.24-1.24.56-1.24,1.24-1.24,1.24.56,1.24,1.24"/>
    <path class="cls-16" d="m32.17,70.39c0,.69-.56,1.24-1.24,1.24s-1.24-.56-1.24-1.24.56-1.24,1.24-1.24,1.24.56,1.24,1.24"/>
  </g>
</svg>
